<?xml version="1.0" encoding="UTF-8"?>
<svg xmlns="http://www.w3.org/2000/svg" xmlns:xlink="http://www.w3.org/1999/xlink" width="4500pt" height="4500pt" viewBox="0 0 4500 4500" version="1.1">
<g id="surface1">
<path style=" stroke:none;fill-rule:nonzero;fill:rgb(0%,0%,0%);fill-opacity:1;" d="M 1187 1951 C 1174 1951 1160.839844 1948.21875 1148 1951.234375 C 1126.890625 1956.199219 1106.726563 1970.722656 1089 1982.671875 C 1028.625 2023.367188 981.214844 2085.332031 972.285156 2159 C 966 2210.136719 979.839844 2261.742188 1003.257813 2307 C 1017 2334 1042.214844 2353.796875 1068 2368.578125 C 1077.445313 2374 1087 2378.742188 1097 2383.140625 C 1100 2384.488281 1106 2385.785156 1107.308594 2389.273438 C 1108.597656 2392.75 1106.503906 2398.457031 1105.921875 2402 C 1104.226563 2412.304688 1102.585938 2422.65625 1101 2433 C 1095.234375 2475 1091.671875 2517.019531 1086.714844 2559 C 1084 2581 1082.566406 2605.210938 1102 2620.320313 C 1125.683594 2638.734375 1161.246094 2630.59375 1173.6875 2603 C 1180.394531 2588.125 1178.910156 2568.050781 1180 2552 C 1182 2524 1185.984375 2496 1189.871094 2468 C 1191.683594 2455 1193.5625 2442 1195.574219 2429 C 1196 2425.546875 1195.699219 2417.148438 1200 2416.269531 C 1208 2414.707031 1221 2420.214844 1229 2421.800781 C 1250.214844 2426.042969 1271.601563 2429.40625 1293 2432.574219 C 1358.328125 2442.242188 1424.273438 2446.410156 1490 2451 C 1645 2461.527344 1800.707031 2462.160156 1956 2469 C 2029.21875 2472.167969 2103 2469 2176 2475.828125 C 2220.902344 2480.105469 2266.925781 2480 2312 2482 C 2331.269531 2482.804688 2354.269531 2480.070313 2373 2484.53125 C 2383.628906 2487.0625 2394 2497.28125 2403 2503.34375 C 2419 2514.265625 2434.949219 2525.417969 2451 2536.34375 C 2458.191406 2541.242188 2468.875 2546.21875 2474.578125 2552.761719 C 2478 2557 2471.625 2566 2469.769531 2570 C 2461.960938 2587 2454.390625 2604.148438 2446.257813 2621 C 2416.460938 2682.746094 2387.769531 2745.382813 2359.859375 2808 C 2353 2823.089844 2345.507813 2837.824219 2339 2853 C 2337.6875 2856.0625 2335.226563 2867.175781 2331.441406 2867.609375 C 2323.570313 2868.511719 2308.328125 2857.613281 2301 2854.425781 C 2273.175781 2842.316406 2245.476563 2829.660156 2218 2816.78125 C 2120.953125 2771.285156 2022 2729.71875 1925 2684.21875 C 1900.484375 2672.726563 1875.683594 2661.820313 1851 2650.695313 C 1825.332031 2639.121094 1797.730469 2629.058594 1776.328125 2655 C 1758.539063 2676.5625 1764.914063 2710.347656 1789 2724.128906 C 1813.257813 2738.007813 1840.597656 2747.679688 1866 2759.308594 C 1916.25 2782.3125 1966.722656 2804.832031 2017 2827.769531 C 2034.636719 2835.8125 2052.496094 2843.421875 2070 2851.746094 C 2074.832031 2854.042969 2085 2856.304688 2086.683594 2862.105469 C 2087.96875 2866.734375 2086.714844 2872.230469 2087.171875 2877 C 2088.9375 2895.585938 2088.222656 2914.347656 2089 2933 C 2091.589844 2991.300781 2092.488281 3049.683594 2095 3108 C 2102.796875 3285.257813 2106.203125 3462.742188 2113.960938 3640 C 2116.90625 3707.273438 2116.3125 3774.828125 2120.910156 3842 C 2122.640625 3867.253906 2115.714844 3901 2130.597656 3923 C 2154.722656 3958.824219 2213 3942 2214.960938 3899 C 2216.578125 3862.359375 2212.640625 3824.613281 2211 3788 C 2208.503906 3730.015625 2207.574219 3672 2205 3614 C 2202 3546.019531 2201 3478 2198 3410 C 2196.867188 3383.257813 2198.851563 3355.570313 2195.714844 3329 C 2193.574219 3311 2194.757813 3292.242188 2193.960938 3274 C 2192.269531 3235.355469 2191.652344 3196.660156 2189.960938 3158 C 2186.238281 3073 2181 2987.171875 2181 2902 C 2271.382813 2939.628906 2359.738281 2983.066406 2449 3023.304688 C 2471.34375 3033.378906 2492.378906 3046.085938 2515 3055.574219 C 2553.785156 3072 2595.921875 3082.117188 2638 3084 C 2721.785156 3087.628906 2807.242188 3085.066406 2891 3083.015625 C 2970.890625 3081.058594 3051 3083 3131 3083 C 3176.363281 3083 3221.609375 3082 3267 3082 L 3305 3082 C 3309.40625 3082 3316.65625 3080.621094 3320.683594 3082.601563 C 3325.636719 3085.039063 3323.992188 3102.152344 3324 3107 C 3324 3130.445313 3325.488281 3154.59375 3327 3178 C 3331.257813 3239 3333.292969 3300.054688 3335.960938 3361 C 3337 3388 3336.621094 3415.222656 3339.171875 3442 C 3341.980469 3471.546875 3337.589844 3508.035156 3374 3518.253906 C 3379.570313 3519.816406 3385.234375 3520.222656 3391 3520 C 3423.554688 3518.484375 3433 3489.089844 3433 3462 C 3432.976563 3397.339844 3424 3332.65625 3424 3268 C 3423.925781 3221.320313 3421 3173.578125 3417.910156 3127 C 3416.953125 3113.003906 3416.328125 3099.035156 3415.984375 3085 C 3415.882813 3080.738281 3413.210938 3073.429688 3415.3125 3069.511719 C 3417 3066.3125 3423.839844 3065.398438 3427 3064.332031 C 3436.53125 3061.125 3445.960938 3057.148438 3455 3052.742188 C 3479.1875 3041 3500.179688 3023.648438 3516 3002 C 3530.757813 2982.109375 3540 2958.078125 3544.996094 2934 C 3549.878906 2910.425781 3550.597656 2887 3550 2863 C 3548.273438 2792 3541.195313 2696.101563 3467 2661 C 3501.863281 2649.195313 3541.875 2646.023438 3578 2638.800781 C 3657.285156 2623 3736.71875 2608 3816 2592 C 3835.980469 2588.003906 3855.925781 2583.734375 3876 2580.25 C 3899.636719 2576.144531 3925 2572.667969 3934.933594 2547 C 3945 2520.363281 3928.761719 2487.371094 3899 2484.175781 C 3882.789063 2482.433594 3867.546875 2490.410156 3852 2483.558594 C 3828.699219 2473.292969 3811 2449.136719 3798.203125 2428 C 3768.683594 2379.402344 3751.339844 2324 3737.625 2269 C 3716.636719 2185.039063 3704.765625 2099 3696.167969 2013 C 3686.617188 1917.46875 3685.953125 1821.480469 3676.828125 1726 C 3665.886719 1611.457031 3649.695313 1498.121094 3623 1386 C 3586 1229.441406 3525.191406 1070 3425.574219 942 C 3399.867188 909.007813 3371.570313 877.195313 3339 850.804688 C 3330.335938 843.785156 3321.488281 836.699219 3312 830.8125 C 3306.621094 827.480469 3299.894531 825.648438 3295 821.722656 C 3281.410156 810.820313 3270 796 3257 784.171875 C 3225.804688 756 3191.476563 731.339844 3155 710.425781 C 3092.539063 674.617188 3023.285156 650.613281 2954 632 C 2828.785156 598 2694.433594 581 2565 593.171875 C 2474.640625 601.773438 2387 621.8125 2304 659 C 2276.410156 671.15625 2249.300781 685.828125 2224 702.34375 C 2215.914063 707.621094 2207.855469 713 2200 718.578125 C 2196.664063 721 2192.246094 725.484375 2188 726 C 2179.972656 726.621094 2166 714.152344 2159 710.304688 C 2134.394531 696.789063 2109 684.433594 2083 674 C 2007.183594 643.671875 1928 628 1847 620.171875 C 1698.269531 606.003906 1538 629.550781 1397 678.34375 C 1358.382813 691.703125 1319 705.824219 1283 725.308594 C 1269.515625 732.601563 1256 740 1243 748.050781 C 1237.621094 751.414063 1230.269531 758.398438 1224 759.496094 C 1216.679688 760.777344 1201.238281 749 1194 746 C 1169.476563 736.21875 1142.453125 729.117188 1117 722.152344 C 1052.703125 704.550781 982.652344 706.242188 919 726.023438 C 818 757.371094 736.167969 823.699219 669.246094 904 C 557.253906 1038.382813 485.648438 1206.488281 477.960938 1382 C 474.851563 1453 481.953125 1525.09375 507.425781 1592 C 520.871094 1627.320313 541.351563 1662.585938 570 1687.714844 C 592.621094 1707.558594 619.359375 1718.34375 647 1729.203125 C 713.910156 1755.488281 788.402344 1769.273438 860 1758.730469 C 890.476563 1754.238281 918.875 1744.703125 947 1732.425781 C 954.863281 1729 962.609375 1724.765625 970 1720.394531 C 972.570313 1719 976.21875 1715.683594 979.425781 1716.53125 C 989 1719.082031 999.828125 1730.007813 1009 1734.742188 C 1029.265625 1745.199219 1051.558594 1752.519531 1074 1756.574219 C 1083.585938 1758.308594 1093.300781 1760 1103 1760.828125 C 1106.800781 1761.199219 1112.304688 1760.371094 1115 1763.5625 C 1118.734375 1767.605469 1118.699219 1777 1119.882813 1782 C 1123.496094 1797.726563 1127 1813.539063 1131.71875 1829 C 1140.335938 1857.722656 1150.476563 1886.300781 1164.257813 1913 C 1171 1926.175781 1179.816406 1938.097656 1187 1951 M 2644 682.285156 C 2660.515625 680.363281 2679.351563 683.230469 2696 684 C 2743.980469 686.0625 2791.675781 692.039063 2839 700.574219 C 2970.199219 724.238281 3106.777344 768.117188 3205 862.039063 C 3245.84375 901.09375 3277.917969 947.492188 3304.691406 997 C 3341.738281 1065.496094 3363.425781 1144.261719 3374.730469 1221 C 3378.75 1248.289063 3380 1275.71875 3383.285156 1303 C 3386.28125 1328.371094 3385 1354.453125 3385 1380 C 3385 1385.625 3387.96875 1402.355469 3380.941406 1404 C 3369.585938 1406.371094 3357.519531 1404.535156 3346 1405.039063 C 3221 1410.507813 3119.390625 1307.714844 3073.425781 1200 C 3060.925781 1170.699219 3050.839844 1140.175781 3044.210938 1109 C 3039 1084.757813 3036.898438 1059.269531 3010 1049.230469 C 2985.65625 1040.140625 2968.464844 1054.777344 2950 1068.625 C 2927.945313 1085.167969 2905.320313 1100.628906 2882 1115.320313 C 2794.621094 1170.359375 2698.261719 1209 2600 1239.660156 C 2576.246094 1247.070313 2552 1253.59375 2528 1259.625 C 2522 1261.113281 2507.277344 1267.4375 2501.5625 1265.222656 C 2497.949219 1263.824219 2498.414063 1253.25 2498 1250 C 2496.253906 1234 2494.347656 1218 2492 1202 C 2483.371094 1139 2468.488281 1080.070313 2439.753906 1023 C 2407.839844 959.617188 2372 900 2325.574219 846 C 2312.195313 830.484375 2297.464844 816.4375 2283 802 C 2279.554688 798.558594 2268.207031 791.414063 2268.207031 786.183594 C 2268.207031 781.117188 2283 774.542969 2287 772.203125 C 2307.226563 760 2328.3125 749.078125 2350 739.71875 C 2414.695313 711.800781 2483.863281 694.183594 2554 687.167969 C 2583.867188 684.179688 2614.324219 685.738281 2644 682.285156 M 1731 710.285156 C 1767.378906 706 1806.683594 710.367188 1843 713 C 2037.273438 726.523438 2218.675781 822.574219 2318.988281 993 C 2343 1034 2367.832031 1077.488281 2381.976563 1123 C 2394.996094 1165 2399.960938 1208.601563 2405 1252 C 2407.550781 1272 2409.691406 1292.070313 2412.578125 1312 C 2413.269531 1316.765625 2417.542969 1330.03125 2414.800781 1334.144531 C 2412 1338.269531 2397.730469 1340.328125 2393 1341.332031 C 2374.894531 1345.164063 2353.355469 1342.03125 2335 1342 C 2288.417969 1342 2242.386719 1339.28125 2196 1336.089844 C 2020.648438 1324.015625 1843.375 1286.710938 1681 1218.574219 C 1618.796875 1192.476563 1557.378906 1161 1502 1122.28125 C 1489.53125 1113.566406 1477 1104.777344 1465 1095.625 C 1448.699219 1083.347656 1435.664063 1071.820313 1414 1074.175781 C 1398.703125 1076 1385.730469 1087.679688 1379.257813 1101 C 1373.410156 1113.042969 1373.191406 1128.019531 1370 1141 C 1364.621094 1164.183594 1357.582031 1186.671875 1349.320313 1209 C 1312.589844 1308.253906 1237.992188 1395 1134 1424.710938 C 1108.679688 1432 1086 1433.179688 1060 1432.039063 C 1052.652344 1431.71875 1039.957031 1434.664063 1033.316406 1431.394531 C 1029.339844 1429.4375 1030 1417 1030 1413 C 1029.910156 1394.316406 1029.636719 1375.609375 1030.910156 1357 C 1036.355469 1277.511719 1046.179688 1201.679688 1069.28125 1125 C 1083 1079.03125 1103.398438 1034.078125 1128.203125 993 C 1146.855469 962.109375 1168.589844 931.71875 1194 906 C 1304 794.570313 1456.265625 746 1608 722.425781 C 1648.953125 716.074219 1690 715.113281 1731 710.285156 M 1001 804 C 989.839844 820 974.589844 833.511719 962.652344 849 C 930.40625 891 901.65625 940.714844 891.199219 993 C 886 1019 884.953125 1045.824219 894.425781 1071 C 903.203125 1094.335938 919.390625 1110 939 1124.371094 C 945.292969 1129.023438 965.476563 1138.828125 966.382813 1147.015625 C 967 1154 962.925781 1163.246094 961.425781 1170 C 957.667969 1187 954.277344 1204 951.414063 1221 C 942.832031 1272.175781 938 1324.160156 938 1376 C 938 1400.046875 937.988281 1424.019531 939 1448 C 939.457031 1457.507813 942.652344 1468.574219 941.214844 1478 C 939.804688 1487.261719 932 1497.113281 928.683594 1506 C 921.175781 1526 916.546875 1546.75 915 1568 C 913.902344 1585.339844 915.683594 1603.070313 919.425781 1620 C 920.367188 1624.261719 926 1636.359375 923.210938 1640.035156 C 919 1645.425781 908 1648.644531 902 1651.28125 C 881.546875 1660.101563 860 1665.796875 838 1668.164063 C 786.492188 1673.679688 734.300781 1663.058594 686 1645.050781 C 668.457031 1638.511719 648.652344 1632.550781 634 1620.535156 C 619.777344 1609 609.253906 1592.402344 601.257813 1576 C 571.53125 1515.007813 566.34375 1441.679688 570.910156 1375 C 582 1212.480469 652 1060.429688 760.828125 940 C 821.28125 873.074219 906.796875 808.042969 1001 804 M 1143 826 C 1130.609375 843.585938 1112.59375 858.078125 1099 875 C 1069 912.246094 1043.605469 952.285156 1022.246094 995 C 1015.230469 1009.03125 1008.644531 1023.433594 1002.800781 1038 C 1001.394531 1041.5 999.242188 1052.386719 993.945313 1050.203125 C 965 1038.328125 986 991.382813 995.21875 972 C 1015.808594 928.082031 1044.9375 889.347656 1080 856 C 1097.648438 839.21875 1118 822.632813 1143 826 M 2381 1761 C 2390.722656 1771.347656 2397 1785.746094 2406 1797 C 2424.761719 1820.65625 2446.839844 1842 2471 1860.105469 C 2503.855469 1884.75 2537.402344 1896.5 2577 1906 C 2642.476563 1921.402344 2710.429688 1924.539063 2776 1908.125 C 2839.925781 1892.125 2897.792969 1852.515625 2936 1799 C 2952.265625 1776.496094 2971.699219 1747.371094 2955 1720 C 2939.773438 1694.8125 2905.445313 1690.160156 2884 1710.175781 C 2874.917969 1718.699219 2871 1731 2864.328125 1741 C 2852.746094 1758.273438 2837.929688 1774.398438 2821 1786.570313 C 2759.960938 1830.460938 2683.371094 1833.269531 2612 1819 C 2581.902344 1813 2553 1806.199219 2528 1788 C 2504.367188 1770.511719 2483.851563 1749.410156 2467.667969 1725 C 2464.8125 1720.695313 2453.207031 1705 2455.417969 1699.703125 C 2457 1696 2469.339844 1693.667969 2473 1692.199219 C 2487.988281 1686.1875 2502.703125 1678.785156 2516 1669.566406 C 2556 1641.769531 2584.371094 1601.546875 2592.246094 1553 C 2599.984375 1505.285156 2586.476563 1453.492188 2559 1414 C 2549 1399.5625 2537.324219 1385.742188 2523 1375.429688 C 2518.328125 1372.066406 2510.640625 1366.675781 2513.691406 1359.511719 C 2515.867188 1354.40625 2536.726563 1352.445313 2542 1351.125 C 2570.191406 1344.078125 2598 1336.179688 2626 1328.140625 C 2708.320313 1304.445313 2787.996094 1271 2864 1231.742188 C 2887.558594 1219.582031 2910.542969 1206.035156 2933 1192 C 2941 1187 2953.554688 1174.550781 2962.855469 1173.160156 C 2966.882813 1172.558594 2968 1181.257813 2969 1184 C 2973 1196.097656 2977.277344 1208.152344 2982 1220 C 3001.753906 1269.527344 3028.257813 1317 3062.433594 1358 C 3092 1393.574219 3127.246094 1424.074219 3167 1447.800781 C 3180.835938 1456.058594 3195.316406 1463.09375 3210 1469.695313 C 3215 1472 3225.738281 1473.804688 3228.972656 1478.5 C 3232.875 1484.164063 3229 1499.234375 3229 1506 C 3229 1533 3227.722656 1560.191406 3225.171875 1587 C 3218.503906 1657 3211.386719 1727 3189 1794 C 3176 1832.730469 3158.335938 1870.445313 3127 1897.710938 C 3078 1940.230469 3013.769531 1963.644531 2952 1980 C 2927.222656 1986.398438 2900.65625 1994.144531 2875 1996 C 2828.3125 1999.125 2779.75 1993.160156 2733 1992.015625 C 2658.992188 1990.203125 2584.933594 1989.273438 2511 1986.039063 C 2485.480469 1985 2459.351563 1987.128906 2434 1983.710938 C 2406 1980 2377.6875 1970 2351 1961 C 2338.847656 1957 2326.894531 1952.558594 2315 1947.800781 C 2311.808594 1946.523438 2303.761719 1945 2302.304688 1941.363281 C 2300.886719 1938 2306.921875 1931.617188 2308.667969 1929 C 2315.816406 1918.273438 2322.609375 1907.328125 2328.769531 1896 C 2351.746094 1853.75 2370.230469 1808 2381 1761 M 1451.511719 1200.113281 C 1455.652344 1199.644531 1462.707031 1206.472656 1466 1208.667969 C 1477.777344 1216.519531 1489.855469 1224 1502 1231.199219 C 1546.621094 1258 1593.246094 1281.175781 1641 1301.71875 C 1740 1344.328125 1844.402344 1374.273438 1950 1395.398438 C 1997.769531 1405 2046.453125 1414.40625 2095 1419 C 2147.992188 1424 2201 1427.796875 2254 1432.828125 C 2266 1434 2278.800781 1434 2291 1434 C 2294.480469 1434 2302.523438 1432.523438 2304.972656 1435.605469 C 2307.398438 1438.660156 2306.78125 1446.238281 2307 1450 C 2308 1462.003906 2309.714844 1474 2310 1486 C 2311 1529.433594 2313 1572.539063 2310 1616 C 2305.207031 1687 2291.667969 1758 2262.304688 1823 C 2247 1857 2227.433594 1891.363281 2200 1917 C 2171.5625 1943.390625 2134.734375 1961.304688 2099 1975.601563 C 2030.910156 2003 1958.539063 2018.179688 1886 2027.71875 C 1735 2047.574219 1569.714844 2044.238281 1424 1995.667969 C 1364.214844 1975.738281 1296.429688 1947 1259.746094 1893 C 1234.71875 1856.164063 1221 1811.101563 1211.574219 1768 C 1199 1711.617188 1190.402344 1652.726563 1188.984375 1595 C 1188.445313 1573.003906 1186 1551.039063 1186 1529 C 1186 1523.117188 1183.613281 1510.460938 1187 1505.5 C 1190.261719 1500.804688 1200.941406 1499 1206 1496.695313 C 1221.75 1489.613281 1237.261719 1482 1252 1473 C 1293.507813 1447.484375 1330.535156 1414.511719 1360.347656 1376 C 1391 1336.3125 1415.179688 1292.554688 1433.800781 1246 C 1438.410156 1234.472656 1442.40625 1222.773438 1446.332031 1211 C 1447 1208.632813 1448.449219 1200.460938 1451.511719 1200.113281 M 3466 1199 C 3470.757813 1215.636719 3478.988281 1231.714844 3484.945313 1248 C 3496.625 1280 3507.25 1312.296875 3516.574219 1345 C 3549.878906 1461.820313 3570 1582.222656 3581.828125 1703 C 3589.464844 1782 3591.679688 1861 3597 1940 C 3603.296875 2030.65625 3613.632813 2121.554688 3630.390625 2211 C 3646.292969 2296 3667.960938 2382.554688 3709.308594 2459 C 3719.472656 2477.789063 3732.292969 2494.285156 3744 2512 C 3690.765625 2519 3637.71875 2533.027344 3585 2543.195313 C 3521.210938 2555.503906 3456 2565.460938 3393 2581 C 3390.6875 2551.738281 3390.242188 2522.332031 3388.960938 2493 C 3388.507813 2482.605469 3384.742188 2468.078125 3387.316406 2458.015625 C 3388.492188 2453.421875 3393.5 2451.019531 3397 2448.347656 C 3404.363281 2442.71875 3411.507813 2436.628906 3417.984375 2430 C 3436.492188 2411.058594 3451.40625 2388 3460.308594 2363 C 3474.839844 2322.199219 3476 2277.816406 3473 2235 C 3465.800781 2128.507813 3422.882813 2017.621094 3313 1981 C 3269.847656 1966.617188 3229.386719 1969.632813 3185 1970 C 3195 1956.210938 3210.179688 1945.59375 3220.996094 1932 C 3242 1905.605469 3257.703125 1874.46875 3269.574219 1843 C 3278.667969 1819 3286.171875 1794.074219 3292 1769 C 3294 1760.558594 3294.363281 1742.128906 3299.988281 1735.605469 C 3303 1732.046875 3315.429688 1733.203125 3320 1732.574219 C 3337.589844 1730.152344 3355 1727 3372 1721.328125 C 3430.320313 1702.320313 3479.238281 1658.746094 3494.625 1598 C 3503.433594 1563.222656 3501.597656 1526.246094 3491.28125 1492 C 3487.203125 1478.46875 3475.78125 1463.628906 3474 1450 C 3472.597656 1437.304688 3476.402344 1422.796875 3476.960938 1410 C 3478.59375 1372.648438 3479.375 1334.253906 3475.828125 1297 C 3473.738281 1275.019531 3472.566406 1253 3469.421875 1231 C 3468.171875 1222.300781 3463 1207.246094 3466 1199 M 2914 1417.425781 C 2877.167969 1422.261719 2836.640625 1432 2809 1459.039063 C 2789 1478.640625 2790.851563 1514.804688 2815 1530.453125 C 2843.285156 1548.78125 2863.773438 1529.691406 2889 1517.78125 C 2902.8125 1511.261719 2918.773438 1508.414063 2934 1510.285156 C 2955 1513 2974.925781 1522.226563 2992 1534.425781 C 3008.691406 1546.355469 3022.3125 1562.105469 3045 1558.5625 C 3084.488281 1552.390625 3097.410156 1505.429688 3069.996094 1478.003906 C 3032.851563 1441 2967.695313 1410.371094 2914 1417.425781 M 1491 1444.59375 C 1437.800781 1446.515625 1379 1467.496094 1342.441406 1508.089844 C 1314.578125 1539.015625 1338.316406 1587 1379 1586 C 1398.785156 1585.5 1410.933594 1570.25 1426 1559.722656 C 1443 1547.726563 1463.207031 1539.773438 1484 1537.285156 C 1499.96875 1535.375 1516.90625 1540 1531 1547.257813 C 1554.214844 1559.261719 1573.960938 1575.230469 1600 1558 C 1624.976563 1541.265625 1626.367188 1505 1605 1485.089844 C 1576.554688 1458.597656 1529.535156 1443.203125 1491 1444.59375 M 2019 1444.425781 C 1989.945313 1448.242188 1961.609375 1452.703125 1934 1463.191406 C 1924 1467 1913 1470.089844 1905 1477.183594 C 1878.832031 1500.125 1885.957031 1545.328125 1920 1556.480469 C 1941.375 1563.480469 1961 1551.71875 1981 1545.34375 C 2007 1537.023438 2039.257813 1531.792969 2066 1539.722656 C 2078 1543.292969 2089.414063 1549.367188 2097.699219 1559 C 2105 1567.527344 2108.359375 1578.019531 2114.789063 1587 C 2125.460938 1602 2143.207031 1608.578125 2161 1606 C 2167 1605 2172.867188 1602.605469 2178 1599.300781 C 2214.417969 1576 2195.320313 1532.726563 2174.574219 1506 C 2138.699219 1459.78125 2076.972656 1436.808594 2019 1444.425781 M 2451 1445.300781 C 2463.632813 1443.484375 2472.355469 1451.695313 2479.574219 1461 C 2493 1478.417969 2501 1501 2501.960938 1523 C 2503.816406 1565.445313 2472 1594.117188 2435 1608 C 2426.386719 1611.171875 2415.449219 1616.15625 2406 1616.386719 C 2400.675781 1616.523438 2403.527344 1606.164063 2403.828125 1603 C 2405.171875 1589 2405 1574.171875 2405 1560 C 2405 1541 2404.792969 1522 2403.960938 1503 C 2403.574219 1494.21875 2400.574219 1482.484375 2403.894531 1474.015625 C 2409.308594 1460.1875 2437 1447.292969 2451 1445.300781 M 3313 1640 C 3320.71875 1607.597656 3318.644531 1571.109375 3320.910156 1538 C 3321.550781 1528.683594 3321.273438 1519.320313 3321.910156 1510 C 3322 1507.019531 3321 1502.113281 3323 1499.605469 C 3325.65625 1496.285156 3335.214844 1498 3339 1498 C 3352.722656 1498 3366.285156 1497 3380 1497 C 3384.316406 1497 3391.617188 1495.519531 3394.648438 1499.316406 C 3401 1507.460938 3403.976563 1521.011719 3405.996094 1531 C 3418 1591 3371.964844 1637.464844 3313 1640 M 1023.214844 1524.605469 C 1030 1521.648438 1041.851563 1524.148438 1049 1524.828125 C 1058.242188 1525.710938 1067.722656 1524.789063 1077 1525.015625 C 1080.214844 1525.09375 1091.683594 1524.667969 1093.398438 1527.605469 C 1096.507813 1533 1093.972656 1546 1094 1552 C 1094 1571 1096.746094 1590.011719 1097 1609 C 1097.195313 1623.121094 1098.582031 1638 1100.425781 1652 C 1100.785156 1654.75 1103.21875 1664.773438 1100.382813 1666.382813 C 1097.933594 1667.769531 1093.53125 1666.105469 1091 1665.601563 C 1081.828125 1663.765625 1072.699219 1661.46875 1064 1658 C 1023.503906 1642 1001.8125 1606.386719 1008.589844 1563 C 1010 1554 1013.5625 1528.800781 1023.214844 1524.605469 M 2003 1698.59375 C 1878.574219 1703.078125 1754.363281 1712.519531 1630 1718 C 1597.359375 1719.390625 1564.640625 1722.1875 1532 1723 C 1513.382813 1723.441406 1490.175781 1721.335938 1474 1732.105469 C 1428.507813 1762.390625 1470.402344 1818.574219 1494.871094 1847 C 1553.621094 1915.265625 1646.605469 1951 1736 1947 C 1778.566406 1945.097656 1820.902344 1939.136719 1862 1927.421875 C 1875.875 1923.46875 1890.902344 1920.246094 1904 1914.109375 C 1935.566406 1899.320313 1967.78125 1873 1990.714844 1847 C 2013.589844 1821.066406 2043.332031 1787.488281 2049.246094 1752 C 2053.878906 1724.203125 2031.53125 1697.566406 2003 1698.59375 M 1909 1796 C 1889 1824.109375 1852.472656 1834.542969 1821 1842.375 C 1742.816406 1861.824219 1661.179688 1859.382813 1593 1813 C 1601.320313 1809.507813 1613.988281 1811.355469 1623 1811 C 1642.617188 1810.101563 1662.40625 1809.253906 1682 1808 C 1733.261719 1804.402344 1784.660156 1802.207031 1836 1800 C 1860.28125 1799 1884.679688 1796.003906 1909 1796 M 1168 2043.394531 C 1177.988281 2041.152344 1189.929688 2043.222656 1200 2044 C 1212.839844 2044.789063 1226 2044.671875 1239 2045 C 1252.964844 2045.328125 1267 2046 1281 2046 C 1288.8125 2046 1298.445313 2044.492188 1306 2046.636719 C 1319.953125 2050.597656 1333.539063 2060 1347 2065.574219 C 1373.921875 2077 1401.824219 2086.21875 1430 2094 C 1538.972656 2123.363281 1655.273438 2135 1768 2130 C 1826.976563 2127.378906 1886.773438 2123.28125 1945 2112.390625 C 1962.34375 2109.144531 1979.78125 2106.238281 1997 2102.351563 C 2001.421875 2101.351563 2012.210938 2096.734375 2016.398438 2098.695313 C 2019.574219 2100.179688 2018 2110.09375 2018 2113 L 2018 2365 C 2018 2367.683594 2019.378906 2376 2016.398438 2377.308594 C 2013 2379 2004.867188 2377 2001 2377 C 1986.617188 2377 1972.34375 2376 1958 2376 C 1903 2376 1847.859375 2373.441406 1793 2371.039063 C 1647.207031 2364.660156 1501.273438 2362.71875 1356 2347.164063 C 1277.484375 2338.761719 1191 2328.425781 1120 2291.742188 C 1107.589844 2285.335938 1095 2277.191406 1086.527344 2266 C 1079.929688 2257.421875 1076 2245.179688 1072.667969 2235 C 1062.972656 2206 1059.402344 2174.511719 1069.695313 2145 C 1079.785156 2116.066406 1099.746094 2092.207031 1123 2072.753906 C 1134.941406 2062.765625 1152.433594 2047 1168 2043.394531 M 3155 2358 C 3181.78125 2354.394531 3208.789063 2344.261719 3235 2337.625 C 3253 2333.0625 3271 2328.402344 3289 2323.425781 C 3301.421875 2320 3313.414063 2317.40625 3322.910156 2308 C 3351.417969 2279.402344 3330.441406 2232.4375 3292 2229.175781 C 3278.25 2228.007813 3262.214844 2235.324219 3249 2238.625 C 3216.253906 2246.8125 3183.738281 2256 3151 2264.125 C 3141 2266.628906 3130.789063 2269 3121 2272.027344 C 3117.820313 2273.039063 3112.726563 2276.65625 3109.390625 2276.007813 C 3105.652344 2275.277344 3103.707031 2267.015625 3102.421875 2264 C 3096.949219 2251.171875 3091.472656 2238.21875 3087 2225 C 3137.925781 2218.5625 3189 2214 3240 2207.28125 C 3263.683594 2204.203125 3287.484375 2197.71875 3294 2171 C 3300.410156 2145.523438 3283.222656 2118.699219 3257 2114.285156 C 3241.84375 2111.734375 3225 2116.210938 3210 2118 C 3179 2121.152344 3147.886719 2124.269531 3117 2128.425781 C 3103.722656 2130.210938 3090.339844 2132 3077 2133.074219 C 3073 2133.445313 3066.203125 2136 3062.433594 2134.308594 C 3058.746094 2132.792969 3057.558594 2121.304688 3058.644531 2118.003906 C 3060.402344 2112.65625 3067.53125 2109 3072 2106.054688 C 3084.679688 2098 3098.203125 2091.480469 3112 2085.578125 C 3169 2061.171875 3237.847656 2048.09375 3297 2073.425781 C 3363.925781 2102.09375 3376.726563 2184.257813 3381 2248 C 3382.910156 2274.613281 3383.210938 2304.46875 3374.304688 2330 C 3356.214844 2382 3300.277344 2401.402344 3250 2405.089844 C 3237 2406.039063 3221.621094 2408.28125 3209 2404.253906 C 3187.664063 2397.441406 3166 2377.164063 3155 2358 M 2116 2068.328125 C 2132.695313 2065.265625 2152.992188 2070 2170 2070 C 2219 2070.234375 2268 2072.785156 2317 2074 C 2415.660156 2076.398438 2514.433594 2077.648438 2613 2082 C 2661.953125 2084.101563 2711 2082.566406 2760 2086 C 2810.1875 2089.347656 2860.808594 2086.476563 2911 2090 C 2924 2090.808594 2937 2092 2950 2094.078125 C 2954 2094.75 2961 2094.65625 2964.394531 2097.3125 C 2967.980469 2100.203125 2964.703125 2117.097656 2965.285156 2122 C 2968.167969 2146.347656 2973.703125 2170.433594 2980.421875 2194 C 3002 2270 3031.785156 2347.273438 3079.375 2411 C 3110.433594 2452.59375 3152.457031 2491 3206 2497.714844 C 3227.890625 2500.507813 3250.171875 2498.179688 3272 2496 C 3276.339844 2495.367188 3291.703125 2490.316406 3294.972656 2493.117188 C 3299.929688 2497.367188 3296.621094 2516 3297.425781 2522 C 3300.898438 2548.453125 3301 2577.304688 3301 2604 C 3300.988281 2609.765625 3296.371094 2627.699219 3290.695313 2630.398438 C 3286.210938 2632.527344 3279.691406 2630.246094 3275 2630.039063 C 3262.382813 2629.488281 3249.628906 2630 3237 2630 C 3189.664063 2630 3142.292969 2628.566406 3095 2628.003906 C 3029.671875 2627.226563 2964.277344 2626 2899 2626 C 2839.480469 2626 2780 2628.070313 2724 2604.574219 C 2686.195313 2588.722656 2653.542969 2563.144531 2620 2540.027344 C 2575.761719 2509.535156 2531.238281 2479.464844 2487 2449 L 2436 2414 C 2427 2407.820313 2418.210938 2400 2408 2396.066406 C 2395.898438 2391.457031 2382.699219 2392.515625 2370 2392 C 2355.328125 2391.320313 2340.703125 2390.34375 2326 2390 C 2278.449219 2388.820313 2230.453125 2386.339844 2183 2383.089844 C 2167.167969 2382.003906 2150.851563 2381.191406 2135 2381.003906 C 2128.871094 2381 2118 2382.632813 2112.605469 2379.398438 C 2109.398438 2377.5 2111 2368.191406 2111 2365 L 2111 2085 C 2110.996094 2078.628906 2107.605469 2070 2116 2068.328125 M 2555.390625 2609 C 2559.933594 2608 2567.472656 2615.636719 2571 2618 C 2586 2628.109375 2601.203125 2638.324219 2616 2649 C 2659.585938 2680 2710 2702.558594 2763 2711.75 C 2824.4375 2722.425781 2888.789063 2719 2951 2719 C 3047 2719 3144 2718.761719 3240 2723 C 3295.789063 2725.402344 3359.214844 2714 3412 2736.425781 C 3447 2751.449219 3450.914063 2785.363281 3454.171875 2819 C 3458.328125 2862 3468.429688 2923.675781 3432.996094 2957 C 3423 2966.210938 3410.570313 2972 3398 2976.574219 C 3358.644531 2991.417969 3316.324219 2990 3275 2990 L 3117 2990 C 3011.6875 2990 2906.371094 2991 2801 2991 C 2742.238281 2991 2681.40625 2997 2623 2989.714844 C 2574.40625 2983.667969 2535.589844 2961.265625 2492 2941.308594 C 2468.761719 2930.667969 2440.316406 2922.476563 2419 2908.199219 C 2414 2904.804688 2421.382813 2895.199219 2423.308594 2891 C 2430.96875 2874.316406 2439 2857.828125 2446.425781 2841 C 2472.335938 2781.605469 2499.820313 2722.230469 2528.246094 2664 C 2535 2650.132813 2541 2636 2547.742188 2622 C 2549.289063 2618.800781 2551.394531 2609.730469 2555.390625 2609 M 1095 2720.464844 C 1063.546875 2726.136719 1058.671875 2754.503906 1055.835938 2781 C 1049.933594 2836.117188 1048.777344 2892.148438 1041.574219 2947 C 1037.722656 2976.351563 1037.933594 3006.480469 1035.910156 3036 C 1031.53125 3100 1028.765625 3164 1025.960938 3228 C 1019 3383.796875 1011.859375 3540 1010 3696 C 1009.460938 3741.679688 1009 3787.324219 1007.984375 3833 C 1007.359375 3858.53125 1003.636719 3886.589844 1007.300781 3912 C 1010.984375 3937.550781 1036.984375 3952.300781 1061 3948.828125 C 1095.167969 3944 1099 3911.816406 1099 3884 C 1099 3816.015625 1102.972656 3748.007813 1103 3680 C 1103 3625.796875 1105.589844 3571.144531 1107.960938 3517 C 1112.792969 3406.683594 1115.210938 3296.296875 1120 3186 C 1123.632813 3104 1131.234375 3022.042969 1134.960938 2940 C 1136.820313 2899.003906 1141 2858 1145.167969 2817 C 1147 2798.59375 1151.679688 2778.484375 1149.828125 2760 C 1147 2733.214844 1120.78125 2715.816406 1095 2720.464844 M 3394 3667.429688 C 3375 3670.101563 3358.414063 3681.808594 3353.476563 3701 C 3347.578125 3724 3353.308594 3753.574219 3354.910156 3777 C 3356.914063 3806.285156 3356.90625 3835.710938 3358.910156 3865 C 3359.742188 3877.164063 3358.246094 3890.117188 3361.488281 3902 C 3366.953125 3922.015625 3387.753906 3938.210938 3409 3935.570313 C 3429.449219 3933.03125 3446 3920.667969 3451 3900 C 3453.6875 3889.191406 3451.835938 3877 3451 3866 C 3450 3851.023438 3450 3836 3449 3821 C 3447 3792.042969 3447 3763 3445 3734 C 3444.363281 3723.394531 3445.570313 3712.402344 3442.84375 3702 C 3437.394531 3681.214844 3416.179688 3664.285156 3394 3667.429688 "/>
</g>
</svg>
