<?xml version="1.0" encoding="UTF-8"?>
<svg xmlns="http://www.w3.org/2000/svg" xmlns:xlink="http://www.w3.org/1999/xlink" width="4501pt" height="4500pt" viewBox="0 0 4501 4500" version="1.1">
<g id="surface1">
<path style=" stroke:none;fill-rule:nonzero;fill:rgb(0%,0%,0%);fill-opacity:1;" d="M 923 2456 C 893.941406 2489.578125 867.765625 2526.480469 841 2562 C 829 2578.140625 811 2595.59375 804.75 2615 C 792.253906 2653.140625 833.277344 2687.5 869 2671.097656 C 886 2663.25 897.203125 2642.566406 908 2628 C 932.226563 2596 955.617188 2562.296875 982 2532 C 982 2577.007813 989.585938 2624.203125 1006.859375 2666 C 1011.859375 2678.09375 1017.273438 2690.296875 1024.910156 2701 C 1028.339844 2705.808594 1037 2712.222656 1038 2718 C 1038.699219 2722.054688 1035 2727.363281 1033.601563 2731 C 1029.304688 2741.558594 1025 2752.242188 1021.34375 2763 C 1007.46875 2802.59375 994.558594 2842.265625 984.371094 2883 C 963.277344 2967.386719 951 3055.054688 951 3142 C 951 3170.027344 950.597656 3198.195313 954.425781 3226 C 955.808594 3236.035156 957.382813 3246.015625 959 3256 C 959.726563 3259.785156 962 3265.253906 960.671875 3269 C 957.914063 3276.710938 946.914063 3283.820313 941 3289.171875 C 924.582031 3304.019531 908 3318.574219 891 3332.753906 C 871.667969 3349 851.804688 3364.269531 832 3379.789063 C 822.304688 3387.390625 811.324219 3398.488281 800 3403.363281 C 787.335938 3408.8125 770.550781 3409 757 3409 C 711.367188 3409 665 3392.351563 633 3359 C 617.210938 3342.523438 604.550781 3323 595.578125 3302 C 537.722656 3166.714844 624.496094 3035 697 2925 C 712.414063 2901.621094 728.851563 2878.78125 743.628906 2855 C 761.789063 2825.765625 742 2785.585938 707 2784.039063 C 679.445313 2782.824219 666 2803.476563 652.332031 2824 C 625.746094 2864 599.464844 2904 574.800781 2945 C 546.417969 2992.304688 516.726563 3042 500.71875 3095 C 466.292969 3209.308594 483.320313 3349.757813 576 3433.167969 C 603 3457.507813 640.898438 3484.519531 678 3490 C 669.53125 3499.238281 656.402344 3505.730469 646 3512.667969 C 625 3526.636719 604 3540.578125 583 3554.34375 C 508.667969 3603 437.421875 3661.261719 416.234375 3752 C 393.609375 3849 438.414063 3945.453125 509 4011.089844 C 617 4111.578125 778.785156 4151.246094 916 4090.140625 C 1042.582031 4033.765625 1135.851563 3914.570313 1207.574219 3800 C 1232.746094 3759.789063 1256.539063 3718.429688 1277.753906 3676 L 1294.753906 3642 C 1296.246094 3639.015625 1298.332031 3631.816406 1301.789063 3630.636719 C 1305 3629.535156 1311 3633.480469 1314 3634.714844 C 1323.839844 3639 1333.9375 3642.714844 1344 3646.308594 C 1382.78125 3660.15625 1422 3672.632813 1462 3682.628906 C 1561.402344 3707.476563 1663 3721 1765 3728 C 1796.894531 3730.09375 1829 3731 1861 3731 C 1875.234375 3731 1895.226563 3727.328125 1908.855469 3731.316406 C 1913.191406 3732.585938 1913.414063 3739.3125 1914.210938 3743 C 1916.734375 3754.679688 1919.449219 3766.507813 1922.710938 3778 C 1936.417969 3826.296875 1949.636719 3874.375 1965.667969 3922 C 1998.820313 4020.492188 2045.886719 4119.285156 2115.832031 4197 C 2159 4245.035156 2215.230469 4285.570313 2281 4291.828125 C 2330.28125 4296.519531 2382 4284.785156 2429 4270.71875 C 2533.777344 4239.285156 2640 4185 2718 4107 C 2756.800781 4068.199219 2789 4020.125 2792.910156 3964 C 2794.335938 3943.160156 2789.925781 3921.117188 2784.875 3901 C 2781.574219 3888 2778.332031 3873.015625 2772 3861 C 2796.714844 3861 2830.898438 3868.003906 2853 3855.121094 C 2883.246094 3837.496094 2882 3789.058594 2850 3774 C 2837.332031 3768 2823.617188 3769 2810 3769 C 2794.628906 3769 2779.316406 3768 2764 3768 C 2756.230469 3768 2737.601563 3771.398438 2731.390625 3766.398438 C 2726.9375 3762.8125 2724.863281 3755 2722 3750 C 2714.761719 3736.691406 2707.695313 3723.21875 2700 3710 C 2675.988281 3667.667969 2647.597656 3627.546875 2624 3585 C 2685 3585 2741.875 3559.121094 2785 3516 C 2820 3481 2856 3435.117188 2870.976563 3387 C 2892.96875 3316.300781 2871.941406 3238 2843.851563 3172 C 2789.28125 3044 2706.308594 2935.046875 2624 2824 C 2661.449219 2819.265625 2699.429688 2818.40625 2737 2814.828125 C 2837.765625 2805.234375 2939 2797.046875 3040 2790.089844 C 3083.824219 2787.070313 3128.402344 2785.070313 3172 2779.714844 C 3219.359375 2774 3231.480469 2706.460938 3184 2689.699219 C 3168.660156 2684.28125 3150.753906 2688.328125 3135 2689.828125 C 3105.761719 2692.613281 3076.304688 2695 3047 2697 C 2937.582031 2704.445313 2828.40625 2715.421875 2719 2723.089844 C 2681.363281 2725.726563 2643.558594 2728.59375 2606 2732.171875 C 2597 2733.023438 2587.933594 2733.402344 2579 2734.574219 C 2575.867188 2735 2570.359375 2736.078125 2567.9375 2733.398438 C 2562.5625 2727.441406 2562.40625 2710.769531 2560.648438 2703 C 2554.496094 2675.773438 2549.5625 2648.265625 2543.574219 2621 C 2520.929688 2518 2501.222656 2414.117188 2478.574219 2311 C 2471.78125 2280.074219 2465.207031 2249.050781 2459 2218 C 2457.464844 2210.320313 2455.734375 2202.683594 2454.199219 2195 C 2453.695313 2192.480469 2451.945313 2188.019531 2453.316406 2185.589844 C 2455.28125 2182.109375 2465.4375 2182.183594 2469 2181.585938 C 2485 2179 2500.984375 2176 2517 2173.246094 C 2562.6875 2165.632813 2608.476563 2158.128906 2654 2149.609375 C 2672.746094 2146.105469 2694 2145.5625 2712 2138.769531 C 2739.464844 2128.320313 2749.898438 2093 2733.226563 2069 C 2712.304688 2039 2675.667969 2052.007813 2646 2057 C 2582.945313 2067.363281 2519.898438 2078.234375 2457 2089.574219 C 2438.363281 2093 2419.597656 2095.632813 2401 2099.195313 C 2392.214844 2101 2383 2101.566406 2375 2106 C 2356.261719 2116.039063 2348.390625 2135.578125 2351.285156 2156 C 2352.167969 2162.210938 2358.359375 2175.695313 2355.53125 2181.488281 C 2354.222656 2184.167969 2349.539063 2184.453125 2347 2185 C 2340.460938 2186.402344 2322.277344 2194.386719 2316.519531 2190.304688 C 2310.5625 2186.089844 2306.363281 2176 2302 2170 C 2296.667969 2162.316406 2285.855469 2152.15625 2283.550781 2143 C 2282.230469 2137.746094 2284.792969 2130.300781 2285.578125 2125 C 2289.800781 2096.476563 2315.804688 2076.351563 2331.976563 2053 C 2340.332031 2041 2348.445313 2028.765625 2355.71875 2016 C 2358 2012 2360.5 2004.660156 2366 2004.316406 C 2383.214844 2003.246094 2401.804688 2006.734375 2419 2008 C 2455.652344 2010.421875 2492.347656 2012.402344 2529 2015 C 2633.632813 2022.074219 2738.367188 2027.746094 2843 2035 C 2854.621094 2035.707031 2867.410156 2037.652344 2879 2037 C 2892.367188 2036.054688 2905.699219 2031.355469 2919 2029.429688 C 2940.273438 2026.347656 2962.523438 2026.097656 2984 2027.039063 C 3054.886719 2030.140625 3124.785156 2056.550781 3184 2094.691406 C 3306.371094 2173.515625 3390 2306.078125 3445.425781 2438 C 3491.628906 2548.113281 3516.300781 2667.222656 3533.269531 2785 C 3560.304688 2972.609375 3565 3161 3565 3350 C 3565 3448.066406 3560.78125 3546.277344 3554 3644 L 3548 3730 C 3547.167969 3743.378906 3548.421875 3760.09375 3544.566406 3773 C 3542.785156 3779 3533.765625 3777 3529 3777 C 3512.335938 3777 3495.660156 3777.195313 3479 3777 C 3449.519531 3776.644531 3419.5 3777.253906 3390 3776 C 3362.773438 3774.769531 3332 3771.398438 3305 3775.300781 C 3283.261719 3778.433594 3264.652344 3799.5625 3266.324219 3822 C 3268 3844.4375 3283.585938 3864.488281 3307 3866.828125 C 3334.214844 3869.550781 3362.632813 3868 3390 3868 C 3427 3868 3463.949219 3869 3501 3869 C 3522.613281 3869 3544.3125 3870 3566 3870 C 3575.984375 3870 3587.246094 3871.4375 3597 3869.101563 C 3632.503906 3860.605469 3631.828125 3827.179688 3635.285156 3798 C 3643.617188 3727.621094 3645.257813 3656.601563 3650 3586 C 3664.605469 3374 3659.492188 3159.785156 3644.910156 2948 C 3640.476563 2883.59375 3632.476563 2819 3622.574219 2755 C 3619.628906 2736 3616.816406 2717 3613.195313 2698 C 3611.910156 2691.285156 3607.175781 2679 3609 2672.316406 C 3609.800781 2669.636719 3613.773438 2669.632813 3616 2669.195313 L 3639 2664.601563 C 3671.296875 2658.140625 3703.589844 2651.421875 3736 2645.574219 C 3841.910156 2626.46875 3947.46875 2604.304688 4053 2583.199219 C 4087.386719 2576.324219 4144.890625 2577.785156 4155.84375 2536 C 4163.28125 2507.628906 4141.789063 2480 4113 2478.089844 C 4098.871094 2477.1875 4086 2485.058594 4072 2481 C 4050 2474.589844 4032.757813 2457.359375 4018.804688 2440 C 3990.703125 2405.042969 3972.289063 2363 3957.308594 2321 C 3932.878906 2252.597656 3917.660156 2181.449219 3905.25 2110 C 3874.605469 1933.601563 3875 1755.421875 3857.828125 1578 C 3840.820313 1402.242188 3809 1225.746094 3749.691406 1059 C 3709.394531 945.761719 3657.488281 835.515625 3585 739 C 3554.375 698.027344 3519.816406 659 3480 626.609375 C 3469.78125 618.304688 3459.296875 610.011719 3448 603.203125 C 3442.671875 600 3435.78125 598.679688 3431 594.722656 C 3414.699219 581.089844 3400.921875 563.5 3385 549.167969 C 3350 517.78125 3311.683594 491 3271 467.578125 C 3173.542969 411.824219 3060.734375 379 2951 357.804688 C 2707.644531 311 2439.53125 323 2225 459.054688 C 2175.246094 490.628906 2131 529 2090 571 C 2050.867188 611.132813 2018.355469 658.074219 1989.601563 706 C 1980.992188 720.347656 1972.773438 735.058594 1965.246094 750 C 1961.171875 758.097656 1957.726563 769.003906 1951.390625 775.605469 C 1947.828125 779.320313 1941.546875 781 1937 783.246094 C 1926.820313 788.335938 1916.765625 793.589844 1907 799.449219 C 1879.429688 816 1853.722656 836.277344 1831 859 C 1810.296875 879.703125 1791.902344 902.648438 1775.667969 927 C 1770.847656 934.226563 1766.269531 941.554688 1761.800781 949 C 1760.191406 951.675781 1758.398438 956.222656 1755.320313 957.507813 C 1751.554688 959.082031 1744.722656 955.585938 1741 954.628906 C 1729 951.5625 1717 948.773438 1705 946.210938 C 1662.222656 937.117188 1618.578125 931.074219 1575 928.089844 C 1479.902344 921.578125 1383.792969 928.660156 1290 945.574219 C 1250.78125 952.648438 1210.347656 959.21875 1173 973.425781 C 1053.347656 1019 944.175781 1096.828125 856 1189 C 825.511719 1221 796.710938 1255.585938 771.660156 1292 C 764.585938 1302.285156 757.570313 1312.597656 750.667969 1323 C 748.542969 1326.199219 745.8125 1333.25 741.816406 1334.363281 C 734.640625 1336.359375 717 1325.484375 710 1322.808594 C 683.234375 1312.632813 655.84375 1304.480469 628 1298 C 527.742188 1274.128906 417.324219 1287.375 344 1366 C 324.191406 1387.363281 307.78125 1412 294.753906 1438 C 219.601563 1588.308594 274.703125 1771 405 1871.347656 C 441.382813 1899.390625 482.78125 1921 526 1936.308594 C 539.761719 1941.203125 553.832031 1945.578125 568 1949.125 C 572.324219 1950.210938 582.183594 1950.792969 584.972656 1954.5625 C 587.871094 1958.484375 586.945313 1968.285156 587 1973 C 587 1985 588.894531 1997.136719 590 2009 C 594.402344 2048.585938 602.246094 2087.792969 613.425781 2126 C 647.71875 2243.25 722.457031 2343.109375 826 2408.050781 C 855.351563 2426.460938 889.339844 2446.796875 923 2456 M 2392 1127 C 2395.496094 1112 2400.886719 1097.253906 2403.996094 1082 C 2411 1047 2412 1011.191406 2405.390625 976 C 2385.347656 869.726563 2289.484375 788.070313 2189 759.425781 C 2150.574219 748.476563 2112.5625 747 2073 747 C 2096.519531 704.589844 2128.214844 664.621094 2161.984375 630 C 2189 602.148438 2218 576.148438 2250 553.722656 C 2465.191406 402.648438 2751.734375 401.558594 2998 463.125 C 3140.628906 498.785156 3277.269531 556.703125 3374.730469 671 C 3479.605469 794 3524 953.058594 3539.171875 1111 C 3542.605469 1147 3543 1183 3543 1219 C 3543 1227.757813 3542.6875 1236.289063 3542 1245 C 3541.914063 1247.550781 3543 1252.820313 3540.394531 1254.398438 C 3532.464844 1259.183594 3515.949219 1255.796875 3507 1256.015625 C 3474.925781 1256.800781 3447 1256.589844 3416 1247.023438 C 3293.640625 1209.398438 3213.773438 1112.074219 3168.203125 996 C 3157.945313 970 3150 942.4375 3144.210938 915 C 3138.292969 887.207031 3135 856.496094 3101 850.464844 C 3074 845.699219 3052.707031 870.472656 3033 885 C 2986.347656 919 2936.695313 947.273438 2886 974.691406 C 2733 1057.382813 2561 1095.136719 2392 1127 M 1846 989 C 1922.921875 844.5 2139.746094 781.796875 2263 905 C 2287.882813 930 2308.710938 959.6875 2314.914063 995 C 2328.269531 1071.003906 2287.820313 1145.070313 2247 1206 C 2236.800781 1221.226563 2225.441406 1235.699219 2214 1250 C 2211.554688 1253.058594 2206 1262.792969 2201.753906 1262.792969 C 2197.488281 1262.792969 2192.191406 1253 2189.800781 1250 C 2179.203125 1236.753906 2168.433594 1223.53125 2157 1211 C 2154 1207.726563 2144 1199.820313 2145.347656 1195 C 2147 1187.785156 2159.59375 1179 2164.386719 1173 C 2175.621094 1159.101563 2184.324219 1143.625 2190.796875 1127 C 2219.332031 1053.699219 2164 988.320313 2102 956.257813 C 2059 934.144531 2008.671875 919.46875 1962 939.425781 C 1941.238281 948.304688 1923.566406 962.25 1909.660156 980 C 1904.710938 986.316406 1900 993 1896.308594 1000 C 1895 1002.316406 1893.597656 1007.421875 1890.609375 1008.007813 C 1887 1008.6875 1881 1004.675781 1878 1003.21875 C 1867.464844 998.28125 1856.261719 994.46875 1846 989 M 3612 965 C 3634 1018.03125 3657 1070.164063 3674.65625 1125 C 3723.746094 1278.652344 3751.320313 1437.726563 3766.828125 1598 C 3773 1663.265625 3774.617188 1728.667969 3779 1794 C 3792.421875 1988.722656 3807 2192.308594 3879.203125 2376 C 3892.207031 2409.09375 3908 2441 3927 2471 C 3935.195313 2483.828125 3946.460938 2495 3954 2508 C 3926.988281 2517.148438 3896 2519.636719 3868 2525.199219 C 3806.6875 2537.386719 3745.296875 2549.15625 3684 2561.398438 C 3661 2566 3637.984375 2570.402344 3615 2575 C 3608.988281 2576.203125 3595.214844 2581.722656 3589.511719 2579.308594 C 3585.480469 2577.597656 3584.597656 2566 3583.625 2562 C 3579.472656 2545.59375 3574.949219 2529.179688 3569.976563 2513 C 3549.988281 2448.003906 3525.179688 2385.816406 3494.753906 2325 C 3440.3125 2216.1875 3365.3125 2116.34375 3269 2041.425781 C 3245.996094 2023.527344 3220.773438 2007.382813 3195 1993.78125 C 3181.378906 1986.59375 3162.863281 1981.582031 3151 1972 C 3175.480469 1959.097656 3202.476563 1951 3227 1937.691406 C 3288.433594 1904.464844 3342 1860.132813 3375.691406 1798 C 3396.335938 1760 3411 1718.03125 3421.625 1676 C 3425 1662.386719 3428.402344 1648.753906 3431.199219 1635 C 3432 1630.574219 3432 1622 3435.589844 1618.742188 C 3439.882813 1614.695313 3453.242188 1616.34375 3459 1615.574219 C 3478.597656 1613 3498 1609.691406 3517 1603.65625 C 3591.265625 1580 3649.585938 1522.363281 3659.714844 1443 C 3664 1409.300781 3659.398438 1375.078125 3648.667969 1343 C 3644.40625 1330.273438 3632.929688 1316 3631.226563 1303 C 3629.894531 1293 3632.859375 1280.195313 3633.828125 1270 C 3635.433594 1253.152344 3635.222656 1236 3635.960938 1219 C 3637.898438 1174.691406 3634.234375 1129.042969 3629.832031 1085 C 3626.984375 1056.519531 3622.683594 1028.222656 3617.917969 1000 C 3616.261719 990.179688 3609.816406 974.5625 3612 965 M 3065 976 C 3068.960938 1003 3082.476563 1031.148438 3093 1056 C 3125.476563 1131.277344 3172.929688 1200.507813 3236 1253.246094 C 3265.421875 1278 3298 1298.542969 3333 1314.304688 C 3340.8125 1317.828125 3366.5625 1323.679688 3366.980469 1333.015625 C 3368.484375 1366.648438 3365.386719 1401.46875 3363 1435 C 3357.988281 1509.53125 3350.773438 1584.550781 3331 1657 C 3318.203125 1704.808594 3301.304688 1754.792969 3268.570313 1793 C 3229 1839.089844 3168 1867.65625 3112 1887.691406 C 3020.488281 1920.371094 2919 1938.328125 2822 1940.546875 C 2788.996094 1941.296875 2754.925781 1936.34375 2722 1934.089844 C 2669.683594 1930.507813 2617.316406 1927.671875 2565 1924.089844 C 2535.585938 1922.074219 2506 1922.09375 2477 1916.199219 C 2458.230469 1912.386719 2439.484375 1908.152344 2421 1903.152344 C 2416.628906 1902 2404.824219 1901.105469 2402.199219 1897.144531 C 2400.722656 1895 2402.355469 1890.394531 2402.753906 1888 C 2404 1880.367188 2405.292969 1872.714844 2405.914063 1865 C 2408 1837.6875 2408.9375 1809.289063 2405.714844 1782 C 2394.691406 1688.589844 2374.445313 1598.605469 2339.398438 1511 C 2331.316406 1490.789063 2322.773438 1470.777344 2313.691406 1451 C 2310.421875 1444 2301.589844 1433 2301.808594 1425 C 2302 1417.101563 2311.328125 1404.449219 2315.671875 1398 C 2348.679688 1349.007813 2417.242188 1359.160156 2466 1373.425781 C 2478.90625 1377.199219 2491.683594 1385.105469 2505 1387 C 2533.28125 1390.527344 2559.9375 1367.058594 2557.910156 1338 C 2555.617188 1305.078125 2522.234375 1295.046875 2496 1286.332031 C 2432.605469 1265.277344 2359.683594 1260.203125 2299 1292 C 2306.738281 1276.460938 2319.992188 1262.511719 2329.667969 1248 C 2333.515625 1242.226563 2337.710938 1232 2343.519531 1228.011719 C 2347.679688 1225.238281 2355 1225.664063 2360 1225 C 2372.347656 1223.308594 2384.683594 1221.484375 2397 1219.574219 C 2440.226563 1213 2483.214844 1205 2526 1195.789063 C 2660 1167.285156 2790.628906 1123.4375 2914 1063.742188 C 2948.566406 1047.015625 2982.359375 1027.800781 3015 1007.574219 C 3030.960938 997.6875 3047.511719 982.628906 3065 976 M 1489 1018.285156 C 1501.320313 1016.832031 1513.726563 1019 1526 1019 C 1566.640625 1019.480469 1606.800781 1023.339844 1647 1029.574219 C 1793.304688 1052.265625 1929.742188 1119.242188 2038 1220.089844 C 2139.351563 1314.503906 2214.65625 1437.410156 2262 1567 C 2286.703125 1634.394531 2305 1704.480469 2312.167969 1776 C 2316.832031 1822.628906 2317 1870.265625 2300.945313 1915 C 2268.324219 2005.089844 2198 2074.6875 2124 2132.425781 C 2057.941406 2184 1984.796875 2225.113281 1910 2262.246094 C 1867.292969 2283.449219 1822.496094 2305.65625 1777 2320.253906 C 1728.539063 2335.804688 1676.53125 2344.140625 1627 2356 L 1509 2384 C 1486.847656 2389.136719 1463.632813 2397.394531 1441 2399.824219 C 1327.566406 2412.023438 1211 2411.824219 1098 2398.285156 C 1084.867188 2396.714844 1071.667969 2401.632813 1059 2400.296875 C 1025.910156 2396.808594 990.902344 2383.332031 960 2371.574219 C 917.625 2355.457031 877 2333.636719 841 2306.117188 C 656.242188 2165.144531 658.679688 1902.625 700 1696 C 708.46875 1653.65625 719.679688 1612 733.332031 1571 C 750.335938 1520 771.960938 1470 798.425781 1423 C 832.484375 1362.722656 872.871094 1306.691406 920 1256 C 979.453125 1192.269531 1050.488281 1138.167969 1127 1096.691406 C 1156.867188 1080.5 1188.320313 1064.457031 1221 1054.722656 C 1286.949219 1035.070313 1357.824219 1027.65625 1426 1021.171875 C 1446.890625 1019.179688 1468.207031 1020.738281 1489 1018.285156 M 1964 1072 C 1973 1055.65625 1977.476563 1034 1996 1025.324219 C 2024 1012.324219 2066.238281 1039 2087 1056.085938 C 2094.910156 1062.605469 2103.828125 1071.398438 2105.671875 1082 C 2109 1101.558594 2088.699219 1121.101563 2076 1133 C 2072.917969 1135.777344 2064.238281 1145.527344 2059.828125 1144.828125 C 2051.335938 1143.476563 2039.804688 1130.308594 2033 1125.117188 C 2010.1875 1107.710938 1988.328125 1087.199219 1964 1072 M 3003 1270.425781 C 2963 1275.664063 2919.3125 1286.265625 2889 1315.089844 C 2867.878906 1335.199219 2870.640625 1372.738281 2896 1388.175781 C 2924.574219 1405.566406 2945 1385.410156 2970 1373.257813 C 2986.914063 1365.015625 3006.230469 1361.351563 3025 1363.171875 C 3049.988281 1365.589844 3073.609375 1377 3094 1391.023438 C 3113.460938 1404.460938 3126.972656 1421.453125 3153 1417.699219 C 3196.539063 1411.421875 3199 1359.253906 3172 1334.089844 C 3130.222656 1295.1875 3061.539063 1262.734375 3003 1270.425781 M 3449 1524 C 3449 1481.738281 3457.492188 1439.359375 3457.996094 1397 C 3458 1386 3459 1375 3459 1364 C 3459 1361 3457.636719 1353.417969 3460 1351.027344 C 3463.292969 1347.761719 3475.585938 1350.152344 3480 1350 C 3497.605469 1349.191406 3515.371094 1348 3533 1348 C 3539.3125 1348 3548.230469 1346 3552 1352.058594 C 3579.617188 1395.03125 3574.785156 1462.3125 3533 1494.101563 C 3507.527344 1513.480469 3478.9375 1517 3449 1524 M 535 1379.375 C 575.570313 1377.367188 618.871094 1389.28125 657 1402 C 666 1405.039063 675 1408.589844 684 1412 C 687.300781 1413.183594 692.921875 1414.21875 695.292969 1417 C 697.933594 1420.089844 692.6875 1427.117188 691.246094 1430 C 686.328125 1440 681.800781 1450 677.425781 1460 C 675.828125 1463.683594 674.324219 1470.695313 671 1473.1875 C 668 1475.472656 658.382813 1470.679688 655 1469.710938 C 639.574219 1465.277344 623.953125 1462.6875 608 1461.171875 C 557.203125 1456.335938 506.722656 1483 484.257813 1529 C 471.609375 1555 468 1583.492188 468 1612 C 468 1664.191406 479.589844 1717.207031 521 1752.699219 C 533.839844 1763.703125 549.757813 1772 566 1776.574219 C 571.484375 1778.136719 588.636719 1778.339844 591.972656 1782.605469 C 594.597656 1786 591.941406 1795.070313 591.425781 1799 C 589.621094 1812.671875 588.191406 1827.222656 588 1841 C 587.960938 1844.109375 588.695313 1856.8125 584.683594 1857.382813 C 575 1858.738281 558.871094 1850 550 1846.574219 C 516.191406 1833.824219 484.238281 1816.191406 456 1793.601563 C 356 1713.625 318.195313 1565.167969 391.667969 1455 C 409.714844 1428 433 1406.082031 463 1393 C 485.894531 1382.742188 510.378906 1380.59375 535 1379.375 M 1815 1379.464844 C 1790.191406 1384 1774.710938 1406.402344 1777.171875 1431 C 1779.734375 1456.625 1794.683594 1484.769531 1803.308594 1509 C 1813 1536.277344 1822 1563.808594 1831.945313 1591 C 1835.925781 1602 1838.640625 1613.746094 1844 1624 C 1853 1641 1873 1650.734375 1892 1647.386719 C 1916.859375 1643 1933.34375 1621.113281 1930.828125 1596 C 1929.617188 1584 1923.660156 1571.328125 1919.425781 1560 C 1913.867188 1545.132813 1909 1530 1903.691406 1515 C 1894.339844 1488.71875 1885.628906 1462.203125 1876 1436 C 1872 1425.191406 1869.589844 1413.152344 1864 1403 C 1854.703125 1385.628906 1834.441406 1376.027344 1815 1379.464844 M 588 1554.300781 C 604.207031 1552 621.71875 1555.371094 637 1560.695313 C 640.269531 1562 649.757813 1563.375 651.382813 1566.5625 C 653.265625 1570.269531 650.59375 1578 650 1582 C 648.628906 1596.34375 646.410156 1610.640625 645 1625 C 643.617188 1640.65625 641.671875 1656.414063 639.574219 1672 C 639 1675.179688 639.589844 1685.59375 635.683594 1686.410156 C 619.628906 1689.773438 597.800781 1693.054688 583 1684.070313 C 563.65625 1672.320313 560.246094 1640.476563 560 1620 C 559.738281 1597.785156 559 1558.464844 588 1554.300781 M 2427 1558.4375 C 2398.550781 1563 2380.734375 1592.757813 2390.4375 1620 C 2406.828125 1666.011719 2440.773438 1705.269531 2476 1738 C 2497.171875 1757.53125 2522 1776.804688 2548 1789.730469 C 2568 1799.753906 2592.3125 1804.453125 2614 1810 C 2676.195313 1825.421875 2742.378906 1832.441406 2806 1822.574219 C 2889.894531 1809.5625 2965.683594 1768.675781 3017.988281 1701 C 3040.523438 1672 3073.734375 1618.179688 3027 1593 C 3020.824219 1589.5625 3013.929688 1588.082031 3007 1587.464844 C 2974.730469 1584.589844 2964.839844 1614.460938 2949.976563 1636 C 2935.308594 1657.25 2916.992188 1675.570313 2896 1690.574219 C 2828.378906 1739 2739.628906 1741.222656 2661 1725.398438 C 2637.433594 1720.65625 2609.652344 1716.097656 2588 1705.34375 C 2559 1691 2532 1665.285156 2511.425781 1641 C 2501.390625 1629.21875 2492.402344 1616.519531 2484.863281 1603 C 2471.515625 1579.074219 2460 1553.226563 2427 1558.4375 M 993 1640.429688 C 970.335938 1643.667969 953.410156 1659.765625 951.171875 1683 C 949.441406 1701 958.316406 1721.753906 962.628906 1739 L 983 1821 C 986.75 1835.5 988.835938 1852 996.335938 1865 C 1005.582031 1881.125 1024.84375 1889.292969 1043 1886.699219 C 1063.265625 1883.804688 1080.460938 1866.714844 1081.910156 1846 C 1083.410156 1824.621094 1074 1801.578125 1068.871094 1781 L 1049.871094 1705 C 1046.617188 1692 1044.757813 1677.019531 1038.625 1665 C 1030.421875 1649 1011.191406 1637.828125 993 1640.429688 M 1512 1764.425781 C 1474.707031 1769.335938 1438 1777 1402 1787.71875 C 1375.472656 1795.675781 1349 1804.019531 1323 1813.308594 C 1300.921875 1821.164063 1271.261719 1826.398438 1258.453125 1848 C 1243.71875 1873 1257.671875 1895.007813 1271.667969 1916 C 1300.671875 1959.507813 1332.878906 2004 1375 2035.625 C 1387.417969 2045 1400.652344 2053.4375 1415 2059.574219 C 1421 2062.179688 1433 2063.320313 1437.4375 2068.304688 C 1441.652344 2073.125 1442.214844 2084 1443.574219 2090 C 1446.910156 2105.019531 1450.335938 2120.03125 1453.882813 2135 C 1455.421875 2141.480469 1459.207031 2150.363281 1457.722656 2157 C 1455.496094 2167 1448.8125 2177.542969 1443.304688 2186 C 1438.484375 2193.402344 1432.757813 2201 1426 2206.5625 C 1420.539063 2211.183594 1414.644531 2215.269531 1408 2218 C 1369 2234 1339 2201.460938 1305 2190.359375 C 1275.203125 2180.636719 1246.339844 2202.675781 1244.183594 2233 C 1242.597656 2255.347656 1258.6875 2269.613281 1276 2280 C 1308.699219 2299.621094 1350 2316.792969 1389 2314.789063 C 1424.570313 2313 1457.59375 2302.234375 1485 2278.714844 C 1495.746094 2269.492188 1505 2259.339844 1513.625 2248 C 1515.933594 2245 1520.253906 2235.464844 1524.324219 2235 C 1528.496094 2234.265625 1535.574219 2241 1539 2243 C 1550 2249.730469 1561.800781 2255.472656 1574 2260 C 1619.585938 2276.660156 1670.328125 2270 1707 2236.828125 C 1740.472656 2206.703125 1761.269531 2163.113281 1772.371094 2120 C 1778.179688 2097.433594 1779.507813 2073.246094 1758 2058.042969 C 1733.78125 2041 1697.464844 2050.210938 1687 2079 C 1677.414063 2106 1672.960938 2132.523438 1655 2156 C 1644.558594 2170 1630.835938 2179.527344 1613 2175 C 1605.328125 2172.832031 1597.867188 2169.503906 1591 2165.574219 C 1581.449219 2160.105469 1572.453125 2153.597656 1564 2146.566406 C 1558.925781 2142.34375 1552.359375 2138 1549 2132 C 1540.710938 2116.550781 1539.824219 2093.097656 1535.625 2076 C 1533.839844 2068.730469 1527.683594 2054.414063 1529.777344 2047.171875 C 1531.722656 2040.445313 1543 2033.238281 1547.828125 2028 C 1558.25 2016.378906 1566.335938 2002.691406 1573.691406 1989 C 1580.632813 1976.078125 1586 1962 1590.667969 1948 C 1593.988281 1938.074219 1596.855469 1928.0625 1599.710938 1918 C 1612.847656 1871.703125 1633.597656 1798.679688 1578 1772.320313 C 1569 1768.125 1559.632813 1766.101563 1550 1764.730469 C 1538 1763.03125 1523.9375 1763 1512 1764.425781 M 1513.941406 1857.34375 C 1518.847656 1857.167969 1517.460938 1861.632813 1516.800781 1865 C 1515 1873.359375 1513.484375 1881.746094 1511.371094 1890 C 1505.398438 1913.339844 1497.894531 1937.664063 1484.65625 1958 C 1479.824219 1965.421875 1472.898438 1976.316406 1463 1977 C 1453.90625 1977.351563 1444 1971.257813 1437 1966.277344 C 1418.757813 1953.539063 1403.363281 1937.082031 1389.25 1920 C 1384.644531 1914.429688 1380.195313 1908.730469 1375.792969 1903 C 1374.402344 1901.1875 1371.242188 1898.089844 1372.304688 1895.511719 C 1373.382813 1893 1378.648438 1892.117188 1381 1891.332031 C 1388.976563 1888.675781 1396.996094 1886.210938 1405 1883.65625 C 1439 1872.78125 1477.902344 1858.628906 1513.941406 1857.34375 M 2220 2215 C 2197 2223.578125 2168.21875 2229.738281 2144 2233 C 2154.898438 2220.726563 2172 2211.714844 2185 2201.574219 C 2188.546875 2198.808594 2195 2191.066406 2199.910156 2191.191406 C 2206.425781 2191.363281 2217 2209.761719 2220 2215 M 2143 2233 L 2142 2234 L 2143 2233 M 1093 2631 C 1126.457031 2639.058594 1161.980469 2642.148438 1196 2647.425781 C 1216.199219 2650.558594 1239.554688 2658.023438 1260 2655.824219 C 1282 2653.453125 1299.488281 2633.765625 1300.910156 2612 C 1302.210938 2592.070313 1288 2573.4375 1270 2566.46875 C 1256.3125 2561.210938 1239.441406 2560.816406 1225 2558.574219 C 1192.988281 2553.609375 1160.984375 2548.546875 1129 2543.410156 C 1116 2541.324219 1102.988281 2539.367188 1090 2537.246094 C 1086.433594 2536.664063 1078.605469 2536.8125 1076 2534.011719 C 1074 2532 1074.988281 2526.679688 1075 2524 C 1075 2514.773438 1076.324219 2503.226563 1080.824219 2495.019531 C 1085 2487.316406 1093.984375 2491.238281 1101 2492.273438 C 1120.632813 2495.164063 1140.414063 2496 1160 2498.425781 C 1197.652344 2503.367188 1238 2501.695313 1276 2500.039063 C 1315.625 2498.304688 1355.492188 2499.589844 1395 2495.828125 C 1414.214844 2494 1433.890625 2494.308594 1453 2491.570313 C 1480.207031 2487.675781 1507.265625 2479.222656 1534 2473 L 1673 2440 C 1817.3125 2405.675781 1961.445313 2370.523438 2106 2337.347656 C 2170.4375 2322.5625 2234.460938 2306 2299 2291.574219 C 2316.390625 2287.714844 2333.6875 2283.335938 2351 2279.128906 C 2357 2277.648438 2367.613281 2273.074219 2373.769531 2274.40625 C 2379 2275.546875 2380 2292.4375 2381 2297 C 2385.675781 2320.375 2390.894531 2343.632813 2395.601563 2367 C 2412.402344 2450.460938 2430.742188 2533.628906 2448 2617 C 2452.214844 2637.34375 2456.664063 2657.636719 2460.800781 2678 C 2461.605469 2682 2466.628906 2694.636719 2463.882813 2698 C 2460.699219 2702 2448.445313 2700 2444 2700 C 2424.679688 2700 2405.300781 2702 2386 2702 C 2345.988281 2702.0625 2305.96875 2704.007813 2266 2705 C 2230.363281 2706 2194.613281 2704.480469 2159 2706.039063 C 2051.65625 2710.738281 1943.539063 2708 1836 2708 C 1795.320313 2708 1753.566406 2705.246094 1713 2708.089844 C 1701.699219 2709 1690 2712.5625 1679 2714.574219 C 1655 2719 1631 2722.554688 1607 2725.71875 C 1519.925781 2737.167969 1430.535156 2742.640625 1343 2734.171875 C 1276.433594 2727.726563 1206.882813 2716.101563 1148 2682.421875 C 1126.867188 2670.335938 1100 2656 1093 2631 M 1307 2823 C 1291.445313 2856.273438 1271 2887.085938 1256.425781 2921 C 1224 2995.613281 1201.992188 3073.703125 1184.574219 3153 C 1175.980469 3192.136719 1167 3233.007813 1164 3273 C 1137.421875 3265.34375 1114.21875 3252.230469 1086 3249.050781 C 1078 3248.152344 1070 3247.003906 1062 3247 C 1059 3247 1054 3248 1051.988281 3245.398438 C 1047.417969 3240.09375 1047.660156 3224.8125 1046.84375 3218 C 1043.804688 3192.574219 1041.402344 3165.519531 1043.828125 3140 C 1046.195313 3115.160156 1044.789063 3090 1047.171875 3065 C 1053.378906 3000.042969 1065 2935.820313 1082.859375 2873 C 1090 2847.378906 1098.179688 2822 1107.574219 2797 C 1109.585938 2791.675781 1112.726563 2775 1117.816406 2772.242188 C 1120.988281 2770.53125 1128 2776 1131 2777.140625 C 1143.1875 2782.570313 1155.527344 2787.464844 1168 2792.191406 C 1195.710938 2802.695313 1225 2809.402344 1254 2815.199219 C 1271 2818.621094 1289.519531 2823 1307 2823 M 2485 2792 C 2487.859375 2811.359375 2505.296875 2825.71875 2517.246094 2840 C 2542.648438 2870.367188 2567.371094 2901.328125 2591 2933 C 2641.75 3000.496094 2689.367188 3070.304688 2728.78125 3145 C 2751 3187.179688 2771.796875 3232.082031 2781.789063 3279 C 2786.890625 3303 2790 3329 2784.347656 3353 C 2779.976563 3371.46875 2768 3388.410156 2757.667969 3404 C 2728.40625 3448 2685.929688 3490.511719 2630 3493 C 2571.332031 3495.53125 2515.386719 3456.082031 2478.285156 3414 C 2443.570313 3374.625 2415 3328 2401 3277 C 2390.492188 3238.050781 2388.738281 3196.722656 2381.574219 3157 C 2367 3076.285156 2347.445313 2996.699219 2324.425781 2918 C 2312.625 2877.664063 2302.449219 2833.738281 2282 2797 C 2326.910156 2797 2372 2795.003906 2417 2793.039063 C 2420.351563 2793 2425.585938 2792.125 2428.6875 2793.601563 C 2431.597656 2795 2431.441406 2799 2435 2799.511719 C 2439.894531 2800.324219 2446.183594 2798 2451 2797.273438 C 2462.328125 2795.601563 2473.742188 2794.097656 2485 2792 M 2212 2798 C 2207.625 2808.402344 2201.632813 2816.105469 2201 2828 C 2200.59375 2839.574219 2206.730469 2851.304688 2210.332031 2862 C 2217 2882.214844 2223.171875 2902.683594 2229.65625 2923 C 2252.832031 2995.605469 2270.464844 3070.316406 2285.398438 3145 C 2290.503906 3170.511719 2294.59375 3196.25 2298.269531 3222 C 2299 3228.109375 2304 3244 2301.308594 3249.355469 C 2300 3252 2294.855469 3249.527344 2293 3249 C 2284 3246.476563 2275 3244.613281 2266 3243.082031 C 2232.824219 3237.480469 2199 3237.632813 2166 3244.199219 C 2157.902344 3245.808594 2149.945313 3247.613281 2142 3250 C 2140 3250.394531 2135 3252.789063 2133.644531 3250.355469 C 2131.878906 3247.191406 2134.429688 3239.480469 2134.84375 3236 C 2136.320313 3223.679688 2137.65625 3211.34375 2138.828125 3199 C 2142.90625 3156.214844 2142.84375 3113 2139.910156 3070 C 2135.367188 3003.640625 2120.453125 2935.640625 2092.691406 2875 C 2080.71875 2849 2063 2825.714844 2051 2800 C 2104.703125 2800 2158.347656 2798 2212 2798 M 1338 3545 C 1345.179688 3523 1338.347656 3504.015625 1330.425781 3483 C 1317.5625 3449 1301.902344 3415.40625 1281.667969 3385 C 1275 3375.113281 1268.394531 3365.296875 1260.996094 3356 C 1257.269531 3351.316406 1251 3346.171875 1250 3340 C 1248.621094 3330 1251.753906 3318.105469 1252.835938 3308 C 1255.628906 3282 1259.628906 3256 1263.921875 3230 C 1280.570313 3129.488281 1306.730469 3027.03125 1351.257813 2935 C 1364 2908.523438 1378 2882.511719 1394.332031 2858 C 1399.597656 2850.09375 1406.230469 2836.027344 1414.464844 2831.027344 C 1422.289063 2826.277344 1441.890625 2830 1451 2830 C 1480 2830 1509 2828 1538 2826 C 1576.382813 2823.21875 1614.945313 2818.476563 1653 2812.574219 C 1676.5625 2809 1700.316406 2802.539063 1724 2800.171875 C 1734.683594 2799.101563 1745.339844 2801 1756 2801 L 1900 2801 C 1908.46875 2801 1921 2798.664063 1929 2801.601563 C 1936 2804.21875 1942.832031 2813.636719 1947.960938 2819 C 2038.605469 2913.796875 2055.683594 3058.234375 2047 3183 C 2045.265625 3209.484375 2041.320313 3235.636719 2038 3262 C 2036.824219 3273.070313 2037.601563 3290 2032.566406 3300 C 2029.503906 3306 2020.257813 3310.328125 2015 3314.425781 C 2003.308594 3323.535156 1992.464844 3333.519531 1982 3344 C 1953.292969 3372.753906 1930.558594 3407.8125 1914.425781 3445 C 1894.824219 3490.179688 1886.996094 3538.039063 1887 3587 C 1887 3600 1888.523438 3613.167969 1890.421875 3626 C 1890.828125 3628.738281 1893.378906 3636.621094 1890.394531 3638.398438 C 1887.425781 3640.160156 1881.34375 3639 1878 3639 C 1867 3639 1855.902344 3639.570313 1845 3638.285156 C 1814.875 3634.730469 1783.339844 3636.179688 1753 3634.089844 C 1657.535156 3627.515625 1561.570313 3614 1469 3589 C 1441.78125 3581.484375 1414.5 3573.632813 1388 3564 C 1371.480469 3558 1354.914063 3549.625 1338 3545 M 2621 3759 C 2592.261719 3752.351563 2564.753906 3744.34375 2535 3743.039063 C 2421.257813 3738.058594 2308 3785.175781 2216 3849 C 2180.84375 3873.320313 2149 3901.648438 2123.375 3936 C 2111.75 3951.566406 2099.390625 3970.140625 2094 3989 C 2089.902344 3986.292969 2088.3125 3980.378906 2086.308594 3976 C 2081.347656 3965.160156 2076.828125 3954.066406 2072.398438 3943 C 2055 3899.820313 2040.328125 3855.71875 2027.578125 3811 C 2013.648438 3762.144531 2001.367188 3712.820313 1991.398438 3663 C 1985.796875 3635 1979 3606.703125 1979 3578 C 1979 3518.167969 2002.238281 3457 2043 3413 C 2060.289063 3394.527344 2080.332031 3379.425781 2102 3366.601563 C 2127.773438 3351.355469 2156.351563 3339.410156 2186 3334.433594 C 2227.332031 3327.503906 2269.558594 3334.035156 2307 3352.753906 C 2317 3357.804688 2330.597656 3363.070313 2338.367188 3371.519531 C 2347 3381 2352 3396 2358.8125 3407 C 2372.445313 3429.257813 2387.90625 3450.398438 2405 3470 C 2419.289063 3486.0625 2434.566406 3501.203125 2451 3515 C 2459.878906 3522.328125 2471.660156 3528.636719 2479.238281 3537.300781 C 2508 3570.351563 2530.941406 3612.128906 2554.691406 3649 C 2577.304688 3684.105469 2604.4375 3720.566406 2621 3759 M 982 3934 C 982 3893.332031 973.664063 3851 958.796875 3813 C 953.257813 3799 946.773438 3785.398438 939.746094 3772 C 937.480469 3767.683594 931.449219 3761.066406 931.957031 3756 C 932.769531 3748 946.539063 3738 951.714844 3732 C 973 3707.683594 1014.808594 3676.734375 993.535156 3640 C 990.746094 3635.179688 987.171875 3631 983 3627.183594 C 979 3623.777344 974.773438 3621.117188 970 3619.207031 C 934.859375 3605.140625 913.816406 3638 892.964844 3660 C 888.597656 3664.621094 876.65625 3683 870 3682.40625 C 864.929688 3682 858.75 3674.199219 855 3671.082031 C 843.867188 3661.824219 832 3653.03125 820 3645.078125 C 783.191406 3621 742.890625 3601.632813 701 3588 C 720.304688 3569.507813 747 3556.042969 769 3540.574219 C 815.335938 3507.796875 861.25 3474.496094 906 3439.574219 C 933.640625 3418.007813 960.511719 3395.535156 987 3372.574219 C 997.507813 3363.46875 1008.519531 3348.398438 1021 3342.316406 C 1026.542969 3339.617188 1034 3340.425781 1040 3339.714844 C 1067.929688 3336.40625 1098.167969 3343.445313 1123 3356.257813 C 1130.355469 3360.054688 1144.976563 3366.242188 1149.167969 3373.664063 C 1150.933594 3376.796875 1146.886719 3380 1145 3382 C 1138.839844 3388.527344 1133 3395.476563 1126.964844 3402 C 1108 3422 1086.628906 3443.753906 1100.324219 3473 C 1110.855469 3495.496094 1138.355469 3506.277344 1161 3495.675781 C 1170.820313 3491.078125 1177.710938 3483 1184.828125 3475 C 1191.171875 3468 1197.457031 3461 1203.910156 3454 C 1206.5625 3451.160156 1209.910156 3445.652344 1213.558594 3450.167969 C 1225 3464.523438 1232.402344 3486.003906 1239.199219 3503 C 1241.621094 3509.054688 1246.664063 3517.316406 1246 3524 C 1245 3534.207031 1237 3546.769531 1232.78125 3556 C 1223.371094 3576.074219 1214.167969 3596.160156 1204.246094 3616 C 1162.816406 3699 1115.792969 3779.503906 1057.800781 3852 C 1035.667969 3879.667969 1011 3913.464844 982 3934 M 1071 3477.464844 C 1052.808594 3480.679688 1042.53125 3494.046875 1030.828125 3507 C 1018 3521.027344 1005.214844 3534.820313 992.714844 3549 C 983.941406 3559 974.628906 3567.757813 971 3581 C 963 3611.664063 990 3643.542969 1022 3638.5625 C 1040.894531 3635.609375 1050.765625 3623.296875 1063 3610 C 1075.628906 3596.46875 1088 3583 1100.285156 3569 C 1109.351563 3558.71875 1119.730469 3549.625 1123.570313 3536 C 1132.71875 3503.546875 1104.441406 3471.554688 1071 3477.464844 M 598 3657 C 605.867188 3656.035156 616.378906 3660 624 3662 C 642.570313 3666.511719 661 3671.367188 679 3678 C 760.378906 3707.710938 837.695313 3758.484375 871 3842 C 886.222656 3880.175781 891.886719 3922.164063 889 3963 C 888.472656 3972.03125 887.914063 3981 887 3990 C 886.738281 3993.617188 887 3999.484375 884.398438 4002.300781 C 880 4007 869.878906 4009.488281 864 4011.679688 C 845.808594 4018.464844 827.292969 4023.316406 808 4025.714844 C 694 4040 562.707031 3972 515.863281 3866 C 488.265625 3803.574219 508 3738 555 3691 C 564.378906 3681.609375 574.382813 3673 585 3665 C 588.726563 3662.078125 593.167969 3657.378906 598 3657 M 2506 3835.285156 C 2560.488281 3829 2621.613281 3852.054688 2663 3886.25 C 2691 3909.488281 2709.191406 3942.050781 2696.304688 3979 C 2692.410156 3990.167969 2686.429688 4000.40625 2679.574219 4010 C 2653.386719 4046.640625 2616.515625 4075.40625 2579 4099.691406 C 2503.609375 4148.496094 2413.441406 4190.183594 2323 4198.828125 C 2303.632813 4200.683594 2282.535156 4201.546875 2264 4194.574219 C 2187.964844 4166 2147 4067.648438 2192.34375 3998 C 2215.542969 3962.355469 2250.34375 3935.3125 2286 3913 C 2336.722656 3881.136719 2392.347656 3855.378906 2451 3842.425781 C 2469.253906 3838.390625 2487.5625 3837.460938 2506 3835.285156 "/>
</g>
</svg>
