<?xml version="1.0" encoding="UTF-8"?>
<svg xmlns="http://www.w3.org/2000/svg" xmlns:xlink="http://www.w3.org/1999/xlink" width="4501pt" height="4501pt" viewBox="0 0 4501 4501" version="1.1">
<g id="surface1">
<path style=" stroke:none;fill-rule:nonzero;fill:rgb(0%,0%,0%);fill-opacity:1;" d="M 1362 1810 C 1331.597656 1801.371094 1301.21875 1792.226563 1270 1787 C 1255.957031 1784.53125 1241.851563 1781.058594 1228 1786.230469 C 1210.859375 1792.628906 1201.714844 1808.816406 1191.578125 1823 C 1168.875 1854.773438 1148.765625 1888.03125 1129.574219 1922 C 1041.984375 2077.050781 1008.90625 2251.695313 1011 2428 C 1011.539063 2473 1017.492188 2518.667969 1024.753906 2563 C 1026.945313 2576.378906 1029.539063 2589.710938 1032.199219 2603 C 1033 2607.449219 1036.503906 2615.269531 1035 2619.683594 C 1034 2623 1027.746094 2622.742188 1025 2623.050781 C 1014.640625 2624.214844 1004.316406 2625.785156 994 2627.269531 C 961.683594 2632 907 2632.425781 896.757813 2671 C 889.757813 2697.117188 898.675781 2731.539063 901.84375 2758 C 910.617188 2831.265625 926.355469 2904.074219 946.578125 2975 C 1011.664063 3203.285156 1128.492188 3418.007813 1301 3583 C 1373 3652 1454.300781 3710.484375 1541 3759.574219 C 1648.761719 3820.59375 1766 3862.035156 1886 3891.625 C 1922.289063 3900.582031 1959 3907.40625 1996 3913.585938 C 2005.648438 3915.203125 2015.3125 3916.78125 2025 3918.128906 C 2028 3918.550781 2034 3918.34375 2036.210938 3921 C 2038 3923.046875 2035.855469 3926.789063 2035 3929 C 2032.285156 3936.621094 2029.566406 3944.308594 2027 3952 C 2016.488281 3983.496094 2004.519531 4014.507813 1994 4046 C 1968.199219 4123.257813 1928.402344 4200.734375 1968.246094 4281 C 1975.175781 4295 1982.929688 4308 1992.921875 4320 C 2005.566406 4335.207031 2020.453125 4348 2037 4358.65625 C 2091 4393.773438 2156.613281 4387 2218 4387 L 2374 4387 C 2443.523438 4387 2513.195313 4392.726563 2571 4346.550781 C 2582.554688 4337.320313 2592.898438 4326.652344 2601.984375 4315 C 2612.3125 4301.757813 2621 4286.671875 2627.1875 4271 C 2639.722656 4238.746094 2643.746094 4203.152344 2637.574219 4169 C 2632.460938 4140.683594 2621 4113.234375 2612 4086 C 2594.902344 4034.703125 2577.730469 3983.421875 2561 3932 C 2875 3907.214844 3192 3801 3419 3574 C 3480.648438 3512.351563 3539.640625 3445.316406 3585.808594 3371 C 3601.671875 3345.46875 3626.777344 3315.613281 3603.480469 3286 C 3600 3281.578125 3595.757813 3277.714844 3591 3274.710938 C 3573.792969 3264 3549.886719 3266.566406 3535 3280.175781 C 3522.535156 3291.59375 3514.644531 3310 3505.332031 3324 C 3487 3351.472656 3467.597656 3378.253906 3447 3404 C 3358.347656 3514.808594 3250.203125 3606.566406 3127 3677 C 3098.191406 3693.285156 3068.335938 3708.449219 3038 3722 C 3029.648438 3725.550781 3014.394531 3736.179688 3005.226563 3735.492188 C 3001 3735.183594 2999.636719 3726.117188 2998.398438 3723 C 2993 3709.507813 2987.566406 3696.074219 2981.257813 3683 C 2955 3628.769531 2923.433594 3578.5625 2889.339844 3529 C 2830.898438 3444.039063 2761 3366.359375 2690 3292 C 2612 3210.507813 2529.863281 3131.796875 2438 3066 C 2448.578125 3061.433594 2458 3054 2468 3048 C 2488.570313 3035.632813 2509.179688 3023.359375 2530 3011.421875 C 2591.507813 2976.160156 2654.566406 2943 2719 2913.308594 C 2956.804688 2804.117188 3206 2726.03125 3468 2708.089844 C 3519.792969 2704.542969 3576.503906 2703.324219 3628 2710.1875 C 3637.984375 2711.519531 3646.488281 2718.4375 3657 2719.714844 C 3665.203125 2720.707031 3672 2717.050781 3680 2716.1875 C 3687.613281 2715.355469 3696.480469 2718 3704 2719.078125 C 3707.882813 2719.71875 3715.300781 2719.351563 3718.382813 2722.011719 C 3721.476563 2724.6875 3718.585938 2734.414063 3718 2738 C 3716.316406 2753.355469 3714.296875 2768.738281 3711.753906 2784 C 3704.808594 2825.691406 3696.378906 2867 3686 2908 C 3681 2928.238281 3670.523438 2951.144531 3670 2972 C 3669 3010.035156 3714 3036.203125 3745 3010.671875 C 3767 2992.480469 3770.769531 2952.410156 3777.375 2926 C 3791.257813 2870.460938 3802.347656 2814 3809 2757 C 3812 2733 3816 2708.203125 3815.996094 2684 C 3815.746094 2648.710938 3785.65625 2639.640625 3757 2634 C 3747.734375 2632.179688 3738.347656 2630.464844 3729 2629.128906 C 3726 2628.714844 3721.207031 2628.722656 3720.984375 2625 C 3720.625 2618.660156 3723.785156 2611.085938 3725 2605 C 3728 2589.707031 3731.183594 2574.414063 3733.574219 2559 C 3740.628906 2513.535156 3744.953125 2468 3746.960938 2422 C 3753.847656 2264.605469 3718.667969 2102 3648.246094 1961 C 3626 1916.558594 3601.234375 1874 3573 1833 C 3561.207031 1816 3549.691406 1793.511719 3529 1786.089844 C 3514.539063 1781 3500.410156 1785 3486 1788 C 3456.835938 1794.246094 3424.320313 1801 3397 1813 C 3396.984375 1790.09375 3392.875 1766.730469 3390 1744 C 3384.449219 1696.363281 3376.40625 1649.046875 3367 1602 C 3331 1422.351563 3269.671875 1246.152344 3182.308594 1085 C 3154.179688 1033.113281 3123.550781 982.796875 3090.34375 934 C 3076.785156 914.078125 3062.511719 886.277344 3043 871.761719 C 3028.9375 861.300781 3011.578125 862.085938 2995 864 C 2957.617188 868.148438 2920.4375 882.539063 2887 899.246094 C 2873.351563 906.066406 2860 913.550781 2847 921.398438 C 2843.601563 923.441406 2836.617188 929.738281 2832.964844 925.71875 C 2823.984375 915.828125 2819.628906 898.710938 2813 887 C 2794.453125 853.292969 2776.523438 819.257813 2756.988281 786 C 2700 689.132813 2632.488281 592.777344 2547 519 C 2514.886719 491.285156 2480.179688 465.664063 2441 449 C 2424.511719 441.773438 2406.242188 434.460938 2388 434.710938 C 2373.320313 435 2358.585938 441 2345 446 C 2311.535156 458.425781 2280 475.574219 2251 496.289063 C 2143.207031 573.105469 2062.75 686.539063 1998.859375 801 C 1982.308594 830.65625 1966.433594 860.621094 1951.246094 891 C 1945.644531 902.203125 1940.832031 921.792969 1932 930.550781 C 1928.691406 934 1920.9375 926.789063 1918 925 C 1905 916.832031 1891.667969 909.085938 1878 902.246094 C 1843.796875 885.136719 1807.90625 871 1770 864.753906 C 1752.464844 862 1732.230469 860.285156 1717 871.042969 C 1696.535156 885.496094 1681 915.351563 1667.332031 936 C 1634 985.757813 1603 1036.398438 1574.691406 1089 C 1492.203125 1241.496094 1434.722656 1407 1397.574219 1576 C 1380.847656 1652.164063 1365.351563 1732 1362 1810 M 2388 529.339844 C 2397 528.066406 2409.222656 535.675781 2417 539.78125 C 2442.417969 553.191406 2465.320313 571 2487 589.574219 C 2575.40625 666 2640.546875 768.472656 2698 869 C 2713.921875 897 2728.898438 925.308594 2743.246094 954 C 2746.605469 960.71875 2758.96875 977.378906 2757.183594 984.828125 C 2756 989.761719 2747.660156 994.308594 2744 997.425781 C 2732 1007.570313 2720 1018 2709 1029 C 2667.578125 1070.222656 2627.535156 1112 2590.25 1157 C 2561 1192.230469 2533.675781 1228.800781 2507 1266 C 2500.539063 1275.253906 2494 1284.605469 2487.65625 1294 C 2485.976563 1296.464844 2483 1302.589844 2479.675781 1303 C 2473.394531 1303.433594 2460.261719 1291 2455 1287.332031 C 2437.683594 1275.808594 2415.988281 1262.324219 2395 1259.300781 C 2368.261719 1255.445313 2334.949219 1275 2313 1288.203125 C 2305.464844 1292.753906 2298.253906 1297.683594 2291 1302.660156 C 2288.699219 1304.238281 2285.226563 1307.59375 2282.183594 1307.09375 C 2277.703125 1306.359375 2273 1296.457031 2270.71875 1293 C 2261 1279.304688 2251.789063 1265.460938 2241.882813 1252 C 2203 1199.203125 2162.828125 1147.644531 2118.828125 1099 C 2094.253906 1071.824219 2068.6875 1044.625 2041 1020.574219 C 2032.902344 1013.542969 2025 1006.132813 2017 999.128906 C 2014.277344 996.789063 2008.65625 993.542969 2007.992188 989.714844 C 2007.476563 986.730469 2010.269531 982.648438 2011.425781 980 C 2014.949219 972 2018.8125 964 2022.753906 956 C 2037.667969 926.164063 2052.570313 896.464844 2068.21875 867 C 2121 767.578125 2187.878906 667.089844 2275 594.585938 C 2299.808594 574 2326.582031 555.171875 2356 541.691406 C 2365.898438 537.15625 2377 531 2388 529.339844 M 1795 2058 C 1785.839844 2052.707031 1778 2044.136719 1770 2037.269531 C 1755.324219 2024.757813 1740.332031 2012.582031 1725 2001 C 1672.261719 1960.648438 1616.714844 1923.761719 1558 1892.78125 C 1532.699219 1879.429688 1507 1867.101563 1481 1855.230469 C 1474.800781 1852.402344 1456.570313 1848.320313 1453.3125 1842.351563 C 1451.765625 1839.515625 1452.871094 1833.164063 1453 1830 C 1453.796875 1819.660156 1455.386719 1809.351563 1455.964844 1799 C 1458.472656 1754 1466.574219 1708.378906 1474.574219 1664 C 1507.46875 1481.570313 1564.191406 1296.132813 1655.574219 1134 C 1680.976563 1089 1706.171875 1044.03125 1735 1001 C 1741.984375 990.574219 1749 980.210938 1756.421875 970 C 1758.796875 966.679688 1761.910156 960 1766.175781 959 C 1774.277344 957 1789.453125 964.730469 1797 967.574219 C 1824.417969 978 1850.230469 991.710938 1875 1007.320313 C 1976.300781 1071.15625 2060.726563 1164.035156 2132.375 1259 C 2153 1286.339844 2173 1314 2192.71875 1342 C 2197.570313 1349 2202.3125 1356 2207 1363 C 2208.648438 1365.480469 2211.65625 1368.773438 2210.695313 1372 C 2208.6875 1378.730469 2197.875 1387 2193 1392 C 2180.398438 1405.378906 2168.828125 1420 2157 1434 C 2120.5625 1478 2088.347656 1525.476563 2056.667969 1573 C 1989.53125 1673.710938 1931 1781 1876.753906 1889 C 1848.703125 1944.703125 1818.988281 2000.382813 1795 2058 M 2992.90625 959 C 2997.464844 960.023438 3000.875 967.414063 3003.339844 971 C 3010.679688 981.664063 3018 992.226563 3025.332031 1003 C 3055.300781 1048 3084 1094.652344 3108.246094 1143 C 3191.414063 1309.214844 3254.535156 1484.097656 3285.246094 1668 C 3292.5 1711.4375 3299.558594 1755.089844 3303 1799 C 3303.992188 1810.292969 3305.890625 1821.664063 3306 1833 C 3306 1836.21875 3307.675781 1841.558594 3306.355469 1844.5 C 3304.777344 1848.03125 3297.273438 1849.457031 3294 1851 C 3282.652344 1855.683594 3271.308594 1860.503906 3260 1865.425781 C 3218.628906 1883.421875 3178.253906 1904.199219 3139 1926.425781 C 3089 1954.703125 3041.34375 1986.34375 2995 2020.152344 C 2983.785156 2028.332031 2972.839844 2037 2962 2045.601563 C 2959.433594 2047.65625 2953 2054.703125 2949.5 2053.539063 C 2946.496094 2052.582031 2945 2045.589844 2944 2043 C 2939.988281 2033 2935.847656 2023.007813 2931.800781 2013 C 2915.195313 1972 2897 1931.445313 2879 1891 C 2818.742188 1755.382813 2748 1622 2661.578125 1501 C 2636.535156 1466 2609.792969 1432.511719 2581.574219 1400 C 2574 1391.417969 2565.855469 1383.578125 2558.425781 1375 C 2556 1372.375 2551.683594 1368.804688 2551.828125 1365 C 2552.171875 1356 2566.648438 1341.316406 2571.859375 1334 C 2590.3125 1308.089844 2608.582031 1282.042969 2628.210938 1257 C 2701.71875 1163.21875 2782 1075 2882 1008.667969 C 2906.980469 992.128906 2933.976563 978.144531 2962 967.574219 C 2969.636719 964.695313 2984.695313 957 2992.90625 959 M 2719 2299 C 2709 2290 2702.6875 2274.359375 2695.574219 2263 C 2681.304688 2240.207031 2666 2218 2650.574219 2196 C 2601.875 2127.195313 2545.75 2060.1875 2478 2009.375 C 2452.265625 1990.074219 2423.660156 1972 2393 1961.667969 C 2379 1957.011719 2364.617188 1953 2350 1956.234375 C 2313.261719 1964.753906 2279.78125 1985.789063 2250 2008.125 C 2182.757813 2058.5625 2127.402344 2128 2080.34375 2197 C 2061.710938 2224.367188 2043.542969 2252 2025.949219 2280 C 2021.796875 2286.621094 2017.925781 2293.429688 2013.679688 2300 C 2012.675781 2301.546875 2010.847656 2305.53125 2008.414063 2304.652344 C 2005 2303.429688 2002.25 2296.820313 2000.28125 2294 C 1993.511719 2284.3125 1986.8125 2274.550781 1979.847656 2265 C 1954.710938 2230.523438 1928.285156 2197 1899.949219 2165 C 1891.292969 2155.25 1882.332031 2145.777344 1873.714844 2136 C 1871 2133.03125 1865.871094 2129.433594 1866.28125 2125 C 1866.832031 2119.101563 1871.667969 2112.394531 1874 2107 C 1880.546875 2092 1887.558594 2077 1894.742188 2062 C 1915.589844 2019 1936.347656 1975.8125 1957.753906 1933 C 2033.363281 1781.78125 2117.707031 1630.363281 2223.601563 1498 C 2254.261719 1459.671875 2287.574219 1422.140625 2326 1391.398438 C 2342.941406 1378 2362.234375 1363 2383 1355.777344 C 2388.664063 1353.824219 2393.25 1357.542969 2398 1360.285156 C 2409.210938 1366.75 2419.695313 1374.324219 2430 1382.128906 C 2473.914063 1415.378906 2511.3125 1457.140625 2545.601563 1500 C 2654.519531 1636.15625 2733.984375 1793.792969 2805.304688 1952 C 2822.878906 1991 2838.886719 2030.585938 2855.425781 2070 C 2860 2081.269531 2864.773438 2092.601563 2869.1875 2104 C 2870.828125 2108.230469 2874.535156 2114.414063 2874.304688 2119 C 2874 2124.320313 2866.511719 2129.558594 2863 2133 C 2851.167969 2144.527344 2839.691406 2156.289063 2828 2168 C 2788 2208 2751.929688 2253.15625 2719 2299 M 1967 2379 C 1963.917969 2389.476563 1956.496094 2399.40625 1951.308594 2409 C 1941.808594 2426.5625 1932.175781 2444.140625 1923.246094 2462 C 1892.742188 2523.007813 1863.535156 2584.414063 1834.253906 2646 C 1824.261719 2667.019531 1815.328125 2688.613281 1806 2710 C 1804.214844 2714.507813 1800.492188 2729.605469 1795.582031 2731.210938 C 1788.84375 2733.417969 1773.582031 2724.527344 1767 2722.332031 C 1741.734375 2714 1716.496094 2705.402344 1691 2697.71875 C 1600.347656 2670.410156 1507.757813 2647.085938 1414 2633.273438 C 1343 2622.8125 1270.757813 2614.003906 1199 2614 C 1181.785156 2614 1164.171875 2613 1147 2614.089844 C 1142.207031 2614.417969 1131.617188 2617.691406 1129 2612 C 1123.476563 2598.476563 1122 2581.25 1119.574219 2567 C 1113.945313 2535.777344 1109.882813 2504.546875 1106.828125 2473 C 1092.621094 2326.171875 1116.214844 2175.589844 1174.71875 2040 C 1193.269531 1997.003906 1215.359375 1955.402344 1240.691406 1916 C 1246.511719 1907 1252.195313 1897.785156 1258.425781 1889 C 1261.246094 1885.019531 1263.554688 1880.832031 1269 1881.308594 C 1281.601563 1882.414063 1294.847656 1887.199219 1307 1890.574219 C 1328.742188 1896.617188 1351 1902.441406 1372 1911.09375 C 1378.320313 1913.714844 1383.476563 1918.230469 1390 1920.5625 C 1395.871094 1922.660156 1402.183594 1922.460938 1408 1924.617188 C 1548.230469 1976.601563 1678 2068.574219 1783 2174 C 1827.5 2218.714844 1868.5625 2267.691406 1905.289063 2319 C 1921.769531 2342.019531 1935.878906 2374.808594 1967 2379 M 3489.996094 1882.359375 C 3494.9375 1882.078125 3497.472656 1886.386719 3499.976563 1890 C 3506 1899 3511.796875 1908 3517.65625 1917 C 3543 1956.117188 3565 1998.132813 3583.421875 2041 C 3641.886719 2177.628906 3661.890625 2323.613281 3651 2471 C 3648.535156 2505.824219 3643.453125 2540.746094 3636.601563 2575 C 3634.304688 2586.484375 3633.890625 2604.726563 3627.570313 2614.683594 C 3625.421875 2618.066406 3619.414063 2617.15625 3616 2616.828125 C 3606 2616 3595.9375 2615.003906 3586 2615 C 3542.640625 2615 3499.332031 2613.121094 3456 2616.089844 C 3335.613281 2624.335938 3216.824219 2644.167969 3100 2675 C 3060 2685.386719 3020.183594 2697 2981 2710 L 2943 2722.667969 C 2938.234375 2724.253906 2931.277344 2728.308594 2926.273438 2728.152344 C 2921.628906 2728.011719 2918.277344 2713.691406 2916.800781 2710 C 2909.171875 2691 2901 2672.023438 2893.394531 2653 C 2865.707031 2585.035156 2835.398438 2517.210938 2801.742188 2452 C 2793.472656 2436 2784.925781 2420.070313 2776.757813 2404 C 2773.957031 2398.496094 2767.753906 2391.15625 2771 2385 C 2780.265625 2368.464844 2793.316406 2353.082031 2804.625 2338 C 2828.832031 2305.726563 2854.4375 2274.542969 2881.910156 2245 C 2997 2121.121094 3136.808594 2022.203125 3291 1952.695313 C 3335.371094 1932.691406 3380.746094 1915.40625 3427 1900.328125 C 3446.28125 1894.046875 3469.667969 1883.507813 3489.996094 1882.359375 M 2362 2049.5625 C 2376 2048.503906 2396.929688 2065.28125 2408 2072.667969 C 2449.585938 2100.402344 2485.96875 2136.777344 2517.921875 2175 C 2625.761719 2304.007813 2706 2455.789063 2773.859375 2609 C 2789.558594 2644.503906 2804.390625 2680.34375 2819.71875 2716 C 2824 2726.226563 2828 2736.664063 2832.199219 2747 C 2833.617188 2750.546875 2836.976563 2756 2836.472656 2759.773438 C 2836 2762.769531 2832.335938 2763.523438 2830 2764.425781 C 2822.941406 2767.140625 2815.988281 2770.105469 2809 2773 C 2780.175781 2785 2751.429688 2797 2723 2809.695313 C 2632.957031 2850.285156 2545.65625 2895.679688 2460 2945 C 2435.335938 2959.007813 2410.851563 2974 2387 2989.34375 C 2379.179688 2994.425781 2365.289063 3007.414063 2356 3008.210938 C 2348.527344 3009 2336.195313 2997.03125 2330 2993.191406 C 2306 2978.351563 2282.292969 2963.277344 2258 2949.011719 C 2172.714844 2899 2084.6875 2852 1994 2812.425781 C 1966.378906 2800.371094 1938.921875 2788 1911 2776.601563 C 1906 2774.59375 1884.976563 2769.429688 1884.214844 2763.773438 C 1883.660156 2759.695313 1887.703125 2753.65625 1889.28125 2750 L 1903.578125 2717 C 1922 2674 1941.773438 2631 1962.753906 2589 C 2036.90625 2440.6875 2113.957031 2288.503906 2222.871094 2162 C 2251.710938 2128.5 2283 2095.714844 2320 2071 C 2331.222656 2063.484375 2348 2050.613281 2362 2049.5625 M 2273 3066 C 2257.25 3081.210938 2237 3093.089844 2220 3106.800781 C 2189.636719 3131.09375 2160.8125 3157.101563 2132 3183.171875 C 2018.746094 3285.644531 1913.289063 3401.6875 1824.421875 3526 C 1789.738281 3574.515625 1756.253906 3625.675781 1731.308594 3680 C 1724.945313 3694 1718.777344 3707.800781 1713.203125 3722 C 1711.96875 3725.140625 1710.277344 3735.140625 1706.5 3736.019531 C 1701.921875 3737.082031 1693.179688 3731.203125 1689 3729.421875 C 1672.792969 3722.503906 1656.761719 3715.128906 1641 3707.246094 C 1577 3675.292969 1514.328125 3639.242188 1458 3595 C 1411.917969 3558.804688 1367 3521 1327 3478 C 1188.628906 3329.355469 1092 3148 1036.578125 2953 C 1020.535156 2896.730469 1008.363281 2839.691406 998.753906 2782 C 996.371094 2767.710938 994.585938 2753.359375 992.71875 2739 C 992.195313 2735 989.566406 2726.277344 991.605469 2722.597656 C 993.636719 2719 1006 2719.019531 1010 2718.425781 C 1028.605469 2715.539063 1047.328125 2714 1066 2711.714844 C 1146.9375 2702.035156 1233 2704.046875 1314 2713.714844 C 1657.492188 2754.796875 1979.46875 2885.695313 2273 3066 M 2356 3122.273438 C 2360.21875 3122.769531 2364.667969 3127.199219 2368 3129.578125 C 2376.699219 3135.796875 2385.433594 3142 2394 3148.375 C 2426.808594 3173 2458.457031 3198.558594 2489 3226 C 2611.679688 3335.378906 2725.324219 3457.582031 2820.425781 3592 C 2850 3634 2875.644531 3678.007813 2898.242188 3724 C 2903.5 3734.699219 2907.957031 3746 2912.191406 3757 C 2913.335938 3760.007813 2917 3766.257813 2914.355469 3769.15625 C 2911.1875 3772.578125 2903.308594 3773.421875 2899 3774.71875 C 2886.699219 3778.425781 2874.378906 3782 2862 3785.425781 C 2811.742188 3799.394531 2760.429688 3809.5625 2709 3818.078125 C 2637.414063 3830 2564.417969 3838.789063 2492 3842 C 2464.710938 3843.15625 2437.199219 3841.230469 2410 3840.039063 C 2366.683594 3838.144531 2323.300781 3838 2280 3836.039063 C 2204 3832.714844 2127.5 3835.644531 2052 3825.71875 C 1986.929688 3817.160156 1922.632813 3804.054688 1859 3788.128906 C 1843.191406 3784.167969 1827.597656 3779.417969 1812 3774.71875 C 1807.949219 3773.5 1798.433594 3772.429688 1796 3768.488281 C 1792.738281 3762.730469 1803.980469 3743.71875 1806.421875 3738 C 1819.304688 3707.808594 1835 3679.125 1852 3651 C 1923.738281 3531.445313 2018.765625 3424.234375 2117 3326 C 2172.808594 3270.191406 2229.8125 3216 2292 3167.210938 C 2307 3155.441406 2322.5 3144.246094 2338 3133.140625 C 2342.28125 3130.070313 2350.425781 3121.617188 2356 3122.273438 M 2134.226563 3931.601563 C 2140.910156 3928.632813 2153.90625 3932 2161 3932.714844 C 2178.21875 3934.746094 2195.746094 3934.1875 2213 3935.828125 C 2247.671875 3939.128906 2283 3937.589844 2318 3938.003906 C 2339.988281 3938.265625 2363 3941.308594 2385 3938.714844 C 2404.207031 3936.449219 2423.777344 3939.660156 2443 3937.828125 C 2448 3937.34375 2460.992188 3934.34375 2464.914063 3938.601563 C 2469.96875 3944.097656 2471.652344 3957 2474 3964 L 2494.667969 4026 C 2500.992188 4045 2507.257813 4064 2513.34375 4083 C 2532 4141.539063 2573.851563 4214.148438 2521 4267 C 2513.746094 4274.253906 2505.335938 4280.722656 2496 4285.109375 C 2463.984375 4300.160156 2423.425781 4294 2389 4294 L 2177 4294 C 2140 4294 2101.972656 4297.617188 2073 4270 C 2066.6875 4264 2060.9375 4257.523438 2056.453125 4250 C 2032.667969 4210.101563 2047.765625 4173.011719 2061.65625 4133 C 2075.207031 4094 2089.484375 4055.160156 2102.667969 4016 C 2109.863281 3994.617188 2117.199219 3973.097656 2125.191406 3952 C 2127 3947 2128.808594 3934.011719 2134.226563 3931.601563 "/>
</g>
</svg>
