<?xml version="1.0" encoding="UTF-8"?>
<svg xmlns="http://www.w3.org/2000/svg" xmlns:xlink="http://www.w3.org/1999/xlink" width="4501pt" height="4501pt" viewBox="0 0 4501 4501" version="1.1">
<g id="surface1">
<path style=" stroke:none;fill-rule:nonzero;fill:rgb(0%,0%,0%);fill-opacity:1;" d="M 1321 1520 C 1311.976563 1546.652344 1309.511719 1577.28125 1304.921875 1605 C 1293.390625 1674.589844 1287 1744.695313 1284 1815 C 1282.757813 1844.265625 1284.300781 1873.789063 1285 1903 C 1285.242188 1912.382813 1289.898438 1927.066406 1286.398438 1936 C 1284.398438 1941 1277.773438 1945.015625 1274.171875 1949 C 1263.789063 1960.46875 1253.449219 1972 1243.800781 1984 C 1216.765625 2018 1192.765625 2055.238281 1173.246094 2094 C 1095.214844 2249 1058.886719 2420.765625 1047 2593 C 1037.671875 2730.503906 1042.464844 2869 1056.167969 3006 C 1060.574219 3050.050781 1065.855469 3094.292969 1073 3138 C 1075.503906 3152.660156 1077.707031 3167.355469 1080.25 3182 C 1081.269531 3188 1084.46875 3196.003906 1083.511719 3202 C 1082.761719 3206.542969 1076.324219 3210.140625 1073 3213 C 1064 3220.375 1055.617188 3228.375 1047 3236.171875 C 1019.222656 3261.300781 994 3291 971.882813 3321 C 907.976563 3407.667969 870.441406 3506.660156 863 3614 C 859 3673.015625 870.578125 3732 884 3789 C 899.351563 3853.265625 919 3916.386719 945.425781 3977 C 959.574219 4009.53125 976.398438 4041.636719 996.34375 4071 C 1002 4079.519531 1008.171875 4088 1014.601563 4096 C 1016.535156 4098.425781 1022 4103.160156 1021.960938 4106.472656 C 1021.851563 4110 1012.539063 4114 1010 4115.667969 C 997.238281 4124.179688 984.648438 4133.289063 973 4143.285156 C 928.714844 4181.292969 893.234375 4241.628906 935.664063 4295 C 969.976563 4338.160156 1023.621094 4342.640625 1074 4346.089844 C 1172.207031 4352.816406 1271.796875 4346.421875 1370 4344.015625 C 1375.890625 4344 1384.425781 4342.546875 1390 4344.601563 C 1395 4346.480469 1398.957031 4352.109375 1403 4355.570313 C 1410.730469 4362.195313 1418.941406 4368.066406 1428 4372.742188 C 1454.675781 4386.511719 1485.40625 4393.710938 1515 4398 C 1603.226563 4410.269531 1693.324219 4409.160156 1782 4403.089844 C 1827.433594 4400 1873.523438 4399.78125 1917 4384.308594 C 2004 4353.304688 2067.394531 4274.503906 2079.28125 4183 C 2083.484375 4150.652344 2079.273438 4120.449219 2072 4089 C 2150.941406 4135.074219 2254.21875 4150.695313 2343 4130.347656 C 2380.773438 4121.691406 2412.703125 4104.699219 2448 4090 C 2438.925781 4110.496094 2439 4135.035156 2439 4157 C 2439 4257 2506 4348.171875 2599 4383 C 2648.25 4401.371094 2703 4401.765625 2755 4404.039063 C 2846.761719 4408.058594 2940.40625 4411.761719 3031 4393 C 3053.9375 4388.246094 3077.953125 4381.613281 3098 4369.1875 C 3107.953125 4363.015625 3118.390625 4348.089844 3129 4344.644531 C 3132.523438 4343.496094 3137.3125 4345 3141 4345 C 3151.746094 4345.050781 3162.304688 4345.179688 3173 4346 C 3196.441406 4347.515625 3220.496094 4347 3244 4347 C 3320.179688 4347 3398.328125 4353.089844 3474 4342.269531 C 3512 4337 3555.398438 4314.578125 3573.191406 4279 C 3598 4229.125 3566.179688 4177.820313 3528 4145.589844 C 3515.523438 4135.058594 3502.488281 4125.226563 3489 4116.027344 C 3486 4114.070313 3476.203125 4110.0625 3476.777344 4105.816406 C 3477.289063 4102.058594 3482.324219 4098 3484.574219 4095 C 3491 4086.582031 3497.382813 4078 3503.328125 4069 C 3521.734375 4041.5625 3536.929688 4012 3550.691406 3982 C 3574.230469 3930.722656 3591.558594 3876.480469 3605.882813 3822 C 3619.460938 3770.375 3631.257813 3718.335938 3634.910156 3665 C 3642.902344 3548.269531 3603.71875 3432.386719 3537.976563 3337 C 3516.765625 3306.226563 3492.40625 3277.40625 3466 3251 C 3458 3243.117188 3450.269531 3235.300781 3442 3227.828125 C 3438.972656 3225.097656 3433.195313 3221.191406 3432.488281 3217 C 3431.304688 3209.75 3435.300781 3200.074219 3436.574219 3193 C 3439.757813 3175.371094 3443 3157.726563 3445.730469 3140 C 3454.601563 3079.761719 3462 3019.566406 3467.828125 2959 C 3485.429688 2774.832031 3483.335938 2583.175781 3448.195313 2401 C 3426.378906 2288 3392.476563 2176 3336 2075 C 3316.34375 2039.511719 3294 2005.074219 3267.726563 1974 C 3260 1965.015625 3252.320313 1956.320313 3244 1948 C 3240.808594 1944.808594 3234.558594 1940.550781 3234 1935.714844 C 3233 1925.679688 3237.398438 1913.042969 3238.71875 1903 C 3241.421875 1882.4375 3243.496094 1861.667969 3244.910156 1841 C 3249.402344 1775.378906 3248 1708.429688 3241.828125 1643 C 3239 1614.292969 3235.933594 1585.554688 3231.730469 1557 C 3230.601563 1549.347656 3223.925781 1530.453125 3227.457031 1523.515625 C 3228.8125 1521 3233.449219 1520.710938 3236 1520.199219 C 3244 1518.585938 3252 1517 3260 1515 C 3289.171875 1507 3317 1495.160156 3343 1479.550781 C 3433.695313 1425 3491 1317.195313 3474.574219 1211 C 3453.277344 1073.664063 3329.648438 983.238281 3196 974.089844 C 3162.769531 971.8125 3128.902344 974.363281 3096 979.753906 C 3086.976563 981.230469 3077.886719 983 3069 985.128906 C 3066 986 3061.324219 988 3058.5 986.097656 C 3053.28125 982.605469 3050.25 970.574219 3047.691406 965 C 3040 948.507813 3031.914063 932.210938 3023.753906 916 C 2994.738281 858.378906 2963.199219 801.304688 2928.308594 747 C 2827.207031 589.65625 2708.421875 441.371094 2554 333.28125 C 2462.410156 269.171875 2360.910156 221.050781 2247 226.039063 C 2152 230.199219 2061.5 274.730469 1985 328.28125 C 1832.347656 435.136719 1714.773438 593.167969 1620.601563 752 C 1588.839844 805.574219 1559 860.292969 1531.246094 916 C 1522.988281 932.527344 1515.304688 949.367188 1507.257813 966 C 1504.589844 971.515625 1502.375 981.441406 1497.503906 985.355469 C 1494.628906 987.664063 1490 985.625 1487 985 C 1478.429688 983 1469.6875 981.175781 1461 979.753906 C 1428 974.375 1395 972.589844 1362 974.039063 C 1267.84375 978.160156 1177.320313 1026 1124 1104 C 1110.621094 1123.660156 1100.179688 1145.464844 1092.667969 1168 C 1049.949219 1296.152344 1119 1433.265625 1237 1492.246094 C 1262 1504.792969 1292.738281 1517.691406 1321 1520 M 2255 318.285156 C 2345.3125 307.632813 2437.839844 364.0625 2508 414 C 2687.355469 541.664063 2817.777344 728.570313 2921.308594 920 C 3010.425781 1084.78125 3077 1264.082031 3117.425781 1447 C 3142.351563 1560 3159 1677.378906 3154 1793 C 3148.265625 1925 3125.898438 2065.019531 3038.566406 2170 C 2979.480469 2241.019531 2899.351563 2293.042969 2816 2331.308594 C 2687.636719 2390.242188 2549.753906 2422.503906 2410 2439.714844 C 2329.703125 2449.605469 2248.800781 2452 2168 2450.015625 C 2014.542969 2446.257813 1858.296875 2422.722656 1715 2365.398438 C 1605.652344 2321.660156 1498.257813 2254.597656 1438.425781 2150 C 1409.28125 2099.046875 1394 2039.734375 1385.730469 1982 C 1371.960938 1886.460938 1375.59375 1790.652344 1385.835938 1695 C 1404.214844 1523.324219 1451.78125 1353.183594 1512.574219 1192 C 1587.933594 992.214844 1685.632813 796.648438 1816.347656 627 C 1909 506.554688 2026.222656 379.574219 2176 333.023438 C 2202 325 2228 321.464844 2255 318.285156 M 2020 726.425781 C 1956.933594 734.707031 1899 745.644531 1842 775.78125 C 1703.3125 849 1600 1008.792969 1611 1169 C 1613.832031 1209.050781 1628.539063 1248.660156 1650.667969 1282 C 1658.441406 1293.710938 1667.183594 1305 1677 1315 C 1679.566406 1317.609375 1688.945313 1323.664063 1688.945313 1327.5 C 1688.945313 1330 1684.636719 1332.386719 1683 1333.753906 C 1676.480469 1339.210938 1669.996094 1345 1664 1351 C 1644.273438 1371 1627 1394.097656 1614.257813 1419 C 1580.664063 1484.082031 1576.253906 1559.113281 1578 1631 C 1579.746094 1701.644531 1593 1773.207031 1616.34375 1840 C 1650.375 1938.023438 1706.597656 2027.765625 1779 2102 C 1930.925781 2257.726563 2155 2333 2370 2304.71875 C 2521.6875 2284.769531 2662.621094 2214.691406 2772 2108 C 2912.414063 1971 2991.320313 1768 2977.910156 1572 C 2973.582031 1508.789063 2961.171875 1444.082031 2932.628906 1387 C 2922.269531 1366.277344 2909.382813 1346.21875 2893.828125 1329 C 2890 1324.789063 2875 1314.433594 2875 1308.714844 C 2875 1305.546875 2879.804688 1302.167969 2881.714844 1300 C 2888 1293 2894 1285.632813 2899.875 1278 C 2916.328125 1256.023438 2928.949219 1230.691406 2935.625 1204 C 2943.347656 1173.117188 2941.519531 1141.3125 2938 1110 C 2928.601563 1020.640625 2889.265625 933 2827.910156 867 C 2721 752.339844 2563.828125 703.664063 2411 736.210938 C 2379.464844 743 2347.835938 754 2319 768.246094 C 2309.226563 773.132813 2299.453125 778 2290 783.425781 C 2286 785.683594 2280.671875 790.601563 2276 790.601563 C 2268.980469 790.601563 2259 781.613281 2253 778.308594 C 2235.226563 768.695313 2216.792969 760.582031 2198 753.203125 C 2158.886719 738 2116.757813 729.785156 2075 727 C 2057.253906 725.6875 2037.722656 724.097656 2020 726.425781 M 2857 1799 C 2793.535156 1778.359375 2727.539063 1763.667969 2662 1751.390625 C 2462.875 1714.082031 2261 1709.058594 2060 1729.167969 C 1970.574219 1738.109375 1881 1754.335938 1794 1776.125 C 1770.855469 1782 1747.921875 1788.261719 1725 1795 C 1720.496094 1796.15625 1705.910156 1803.269531 1701.84375 1800.789063 C 1697 1798 1695.46875 1783.09375 1694 1778 C 1687.554688 1755.636719 1682.578125 1733 1678.753906 1710 C 1672.757813 1674.019531 1671 1638.410156 1671 1602 C 1671 1535.460938 1679.785156 1471.261719 1726.171875 1420 C 1743.75 1400.570313 1767 1384.722656 1790 1372.308594 C 1812.34375 1360.222656 1838.890625 1348.355469 1836.910156 1318 C 1835.679688 1299.136719 1822 1281.769531 1804 1276.203125 C 1794.5 1273.285156 1784.460938 1274.160156 1775 1271 C 1761.617188 1266.335938 1749.589844 1257.460938 1740.171875 1247 C 1681.984375 1182.375 1702.792969 1082.234375 1737.257813 1011 C 1808.191406 864.394531 1975.59375 789.765625 2132 829.375 C 2162.507813 837.101563 2191.949219 849.566406 2219 865.605469 C 2239.234375 877.601563 2256 895.171875 2281 894 C 2298.421875 893.113281 2312.84375 877.800781 2327 869.203125 C 2352.183594 854 2378.855469 841.773438 2407 833.023438 C 2533.179688 793.8125 2673.585938 834.386719 2761.828125 932 C 2808.433594 983.550781 2838.769531 1051 2846 1120 C 2849.449219 1150.65625 2850.675781 1180.148438 2835 1208 C 2823.3125 1229.195313 2805.792969 1247.359375 2786 1261.277344 C 2766.335938 1275.105469 2738.730469 1288.199219 2741.175781 1317 C 2744.433594 1355.417969 2779.773438 1355.515625 2805 1373.039063 C 2827.761719 1389 2841.933594 1412.589844 2853.742188 1437 C 2894.609375 1521.472656 2892.84375 1629.8125 2876.574219 1720 C 2871.730469 1747 2863 1772.496094 2857 1799 M 2519 910.4375 C 2501.179688 913.246094 2483.265625 922.242188 2467 929.691406 C 2427.496094 947.777344 2391 971.613281 2355 995.667969 C 2328.785156 1013.144531 2297 1037 2264 1037 C 2234 1037 2205.894531 1013.488281 2181 999.425781 C 2138.765625 975.5625 2094 954.03125 2048 938.667969 C 2021.59375 930 1986.492188 914.324219 1961 933 C 1934 952.589844 1937.261719 994.824219 1966 1011 C 1976.824219 1017.03125 1990.273438 1017.601563 2002 1021.34375 C 2026.566406 1029.183594 2050.566406 1038.546875 2074 1049.308594 C 2146.921875 1082.789063 2214.414063 1144.453125 2300 1125.574219 C 2365.890625 1111.042969 2418.566406 1062 2476 1029.425781 C 2491.492188 1020.671875 2507.476563 1013.007813 2524 1006.398438 C 2535.316406 1002 2547.671875 999.109375 2556.996094 990.816406 C 2590.53125 961 2563.363281 903.453125 2519 910.4375 M 1376 1306 C 1367.382813 1336.363281 1357.914063 1366.464844 1349.882813 1397 C 1347.867188 1404.664063 1345.796875 1412.3125 1343.871094 1420 C 1343.253906 1422.480469 1342.9375 1427.292969 1340.4375 1428.6875 C 1337.484375 1430.332031 1331.992188 1428.117188 1329 1427.375 C 1318.472656 1424.757813 1308 1422 1298 1418.050781 C 1252 1401 1212.289063 1367.082031 1190.246094 1323 C 1182.714844 1308 1177.597656 1291.554688 1174.613281 1275 C 1157 1178.199219 1233.40625 1095.519531 1323 1073.125 C 1356 1065 1389.277344 1065.671875 1423 1068 C 1431.667969 1068.566406 1440.460938 1070.011719 1449 1071.609375 C 1451.484375 1072.078125 1456.371094 1072.183594 1458.183594 1074.164063 C 1459.949219 1076.09375 1457.378906 1080.085938 1456.601563 1082 L 1447 1106 C 1436.917969 1131.210938 1427.429688 1156.613281 1417.808594 1182 C 1414.65625 1190.3125 1412.566406 1206.136719 1406.183594 1212.394531 C 1401.382813 1217.101563 1383.476563 1214 1377 1214 C 1353.207031 1214 1319.96875 1208.046875 1298 1218.324219 C 1264.570313 1234 1261.796875 1281.355469 1294 1300.125 C 1315.640625 1312.734375 1351.648438 1306 1376 1306 M 3177 1306 L 3227 1306 C 3239.34375 1306 3250.816406 1307 3262 1300.6875 C 3295 1282.472656 3292.847656 1234.167969 3259 1218.324219 C 3236.578125 1207.824219 3202.300781 1214 3178 1214 C 3171.726563 1214 3152.488281 1217.179688 3148 1212.394531 C 3141.6875 1205.441406 3139 1188 3135.996094 1179 C 3127.617188 1154.4375 3118.238281 1130.097656 3108.601563 1106 C 3105.53125 1098.332031 3102.503906 1090.648438 3099.394531 1083 C 3098.546875 1081 3095.546875 1076.335938 3097.707031 1074.3125 C 3103.261719 1069.125 3120.671875 1069.632813 3128 1068.578125 C 3160.316406 1064 3194 1065 3226 1071.398438 C 3323.972656 1091.03125 3403.898438 1182.265625 3380.347656 1285 C 3376.25 1303 3369 1320.316406 3359.550781 1336 C 3335.179688 1376.394531 3295.429688 1406.003906 3251 1421 C 3240.972656 1424.378906 3230.429688 1427.273438 3220 1429.078125 C 3217.203125 1429.566406 3212.179688 1431.546875 3209.5625 1430 C 3207 1428.289063 3206.9375 1423.59375 3206.351563 1421 C 3204.535156 1413 3202.523438 1405.023438 3200.789063 1397 C 3194 1366.335938 3184 1336.53125 3177 1306 M 2439 1143.464844 C 2422.695313 1146.402344 2409.578125 1158.488281 2404.355469 1174 C 2399.316406 1189 2402 1207.359375 2402 1223 C 2402 1248.0625 2396.800781 1280 2403.914063 1304 C 2408.742188 1320.367188 2423.691406 1334.253906 2441 1336 C 2446.664063 1336.472656 2452.371094 1336.558594 2458 1335.535156 C 2473.738281 1332.671875 2487.316406 1320.066406 2492.25 1305 C 2496.867188 1291 2494 1272.710938 2494 1258 L 2494 1206 C 2494 1196.582031 2495.25 1186.175781 2492.84375 1177 C 2486.621094 1153.265625 2462.960938 1139.144531 2439 1143.464844 M 2034 1150.429688 C 1981 1158 1992 1217 1992 1256 C 1992 1272.394531 1989 1291.535156 1995.453125 1307 C 2002.605469 1324.550781 2022.988281 1337.042969 2042 1334.714844 C 2095 1328.207031 2084 1267.582031 2084 1229 C 2084 1213.714844 2087 1194.488281 2081.53125 1180 C 2074.496094 1161.683594 2053.992188 1147.597656 2034 1150.429688 M 2098 1396.425781 C 2083.382813 1398.347656 2070.273438 1401.003906 2057 1407.757813 C 1996.285156 1438.636719 2005.734375 1524.308594 2040.476563 1571 C 2056.777344 1593 2078.75 1609.121094 2103 1621.246094 C 2123 1631.296875 2148.183594 1643 2171 1637.105469 C 2204.679688 1628.523438 2215.703125 1583.0625 2190.910156 1559.175781 C 2181.722656 1550.320313 2170.515625 1548.40625 2159 1544.308594 C 2147.191406 1540.105469 2135.820313 1534.144531 2126 1526.335938 C 2118.835938 1520.636719 2101.636719 1502.175781 2106.617188 1491.316406 C 2107.960938 1488.390625 2112.371094 1489 2115 1489.015625 C 2122.980469 1489.195313 2131.269531 1491.242188 2139 1493.128906 C 2166.539063 1500 2197.238281 1522 2225 1505 C 2252.414063 1488.117188 2254 1448.191406 2229 1428.519531 C 2219.558594 1421.089844 2207 1417.726563 2196 1413.574219 C 2166.488281 1402.539063 2129.789063 1392.238281 2098 1396.425781 M 2430 1396.425781 C 2402.390625 1400.050781 2376.238281 1405.167969 2350 1415 C 2339.425781 1419 2327.679688 1422.332031 2319 1430 C 2292.796875 1453.15625 2300.3125 1497.320313 2334 1509.136719 C 2360.246094 1518.339844 2388.675781 1498.015625 2414 1492.425781 C 2419.550781 1491.199219 2438.761719 1485.03125 2442.957031 1490.605469 C 2444.914063 1493.203125 2442.890625 1498.269531 2442 1501 C 2438.980469 1511.535156 2431.5 1520.324219 2423 1527 C 2413.429688 1534.484375 2402.445313 1540.234375 2391 1544.308594 C 2379 1548.574219 2367.460938 1550.445313 2358.175781 1560.089844 C 2330.777344 1588.53125 2350.597656 1637.410156 2390 1639 C 2408.304688 1639.679688 2428.980469 1630.234375 2445 1622.246094 C 2491.648438 1599 2527.960938 1560 2535.570313 1507 C 2538.617188 1485.796875 2537.363281 1462.472656 2527.628906 1443 C 2510 1408 2467.835938 1391.453125 2430 1396.425781 M 2821 1884 C 2813.46875 1904.691406 2799.488281 1924.765625 2787.332031 1943 C 2760.609375 1983.085938 2730.28125 2020.238281 2695 2053.089844 C 2502 2232.742188 2207.808594 2270 1978 2139 C 1901.207031 2095.035156 1834.488281 2035 1783 1963 C 1770.789063 1945.683594 1758.945313 1927.699219 1748.769531 1909 C 1745.925781 1903.769531 1738.96875 1895.339844 1738.816406 1889.277344 C 1738.722656 1885.4375 1749 1884 1752 1883.140625 C 1766.960938 1879 1781.894531 1874.402344 1797 1870.625 C 1860.539063 1854.738281 1924.339844 1842 1989 1831.589844 C 2182 1800.566406 2381.730469 1801.804688 2575 1830.269531 C 2628.6875 1838.179688 2682.3125 1848.371094 2735 1861.375 C 2763.253906 1868.347656 2792.300781 1879.777344 2821 1884 M 3208 2047 C 3219 2064.722656 3232.253906 2081.117188 3243.1875 2099 C 3263.796875 2132.703125 3280.933594 2168.507813 3295.988281 2205 C 3385.675781 2422.378906 3394.925781 2669.703125 3379 2901 C 3366.34375 3087.152344 3336 3273.570313 3273.308594 3450 C 3246.519531 3525.269531 3214 3599.519531 3172.796875 3668 C 3159.269531 3690.398438 3144.832031 3712.070313 3129 3733 C 3120.207031 3745 3107.722656 3755.757813 3102.699219 3770 C 3097.867188 3783.703125 3101.886719 3798 3102.910156 3812 C 3104.964844 3840 3107.734375 3868 3108.960938 3896 C 3113 3991.273438 3115.378906 4090 3096.601563 4184 C 3089.859375 4217.742188 3080.992188 4264.550781 3053 4287.671875 C 3041.722656 4297 3023.996094 4300 3010 4302.800781 C 2976.792969 4309.441406 2941.863281 4314 2908 4314 C 2861.75 4314.074219 2815 4316.558594 2769 4312.171875 C 2710.859375 4306.636719 2648.804688 4313.675781 2598 4279 C 2560.421875 4253.304688 2536.339844 4212.101563 2531.832031 4167 C 2530 4150.25 2530.195313 4130.8125 2536.875 4115 C 2541.46875 4104.125 2549.332031 4102 2558 4095.320313 C 2565.996094 4089.15625 2572 4080.699219 2574.957031 4071 C 2578.617188 4058.726563 2576 4046.4375 2576 4034 C 2575.773438 4014.765625 2577.222656 3995.191406 2575.910156 3976 C 2572.886719 3932 2575 3887.273438 2573.984375 3843 C 2571.792969 3753.375 2572.179688 3663.664063 2569.984375 3574 C 2567.238281 3461.714844 2567.734375 3349.328125 2564.984375 3237 C 2563 3161.109375 2561 3085 2561 3009 C 2561 2909.304688 2557 2809.699219 2557 2710 C 2557 2676 2559.550781 2623.0625 2512 2621.039063 C 2489.953125 2620.101563 2469.265625 2636.460938 2464.667969 2658 C 2461.738281 2671.726563 2464 2688 2464 2702 C 2464 2756.613281 2465.648438 2811.417969 2466.984375 2866 C 2467.996094 2907.308594 2466.234375 2948.722656 2468 2990 C 2470.980469 3057.25 2469.367188 3124.671875 2471 3192 C 2474.863281 3349.273438 2474 3506.683594 2478 3664 C 2479.652344 3731 2480.207031 3798 2481 3865 C 2481.238281 3884.617188 2482 3904.308594 2482 3924 C 2482 3930.652344 2484.664063 3940.828125 2482.394531 3947 C 2480.398438 3952.441406 2474.214844 3956.613281 2470 3960.28125 C 2460.582031 3968.476563 2450.996094 3976.386719 2441 3984 C 2395.5625 4018 2339.441406 4043.445313 2282 4046 C 2213.875 4049 2147.90625 4028.59375 2090 3993.1875 C 2076.898438 3985.179688 2064 3976.632813 2052 3967.207031 C 2047.546875 3963.746094 2040.707031 3960.082031 2038 3955 C 2035.308594 3949.765625 2037 3940.730469 2037 3935 C 2037 3918.65625 2038 3902.382813 2038 3886 C 2038 3824.003906 2041 3762 2041 3700 C 2041 3467.304688 2051 3234.679688 2051 3002 C 2051 2945.683594 2053.328125 2889.289063 2053.996094 2833 C 2054.511719 2789.664063 2051.726563 2745.113281 2055.828125 2702 C 2059 2668.148438 2053.351563 2619.109375 2008 2621.039063 C 2002.535156 2621.273438 1997 2622.71875 1992 2625 C 1956.785156 2640 1963 2681.710938 1963 2713 C 1963 2815.644531 1958 2918.371094 1958 3021 C 1958 3153.289063 1955.253906 3285.800781 1952 3418 C 1949.351563 3526.664063 1950.648438 3635.335938 1947.984375 3744 C 1946.332031 3811.542969 1947.917969 3879.476563 1944.960938 3947 C 1943.96875 3969.617188 1944.953125 3992.363281 1943.960938 4015 C 1943.253906 4031.175781 1940.902344 4049 1943.4375 4065 C 1945.382813 4077.335938 1952.226563 4087.796875 1962 4095.480469 C 1966.964844 4099.386719 1973.402344 4101.355469 1977.671875 4106.09375 C 1982.804688 4111.789063 1984.757813 4119.671875 1986.195313 4127 C 2001.761719 4206.339844 1945.421875 4284.601563 1868 4302.347656 C 1836.542969 4309.558594 1803 4309 1771 4311.089844 C 1703.695313 4315.699219 1636.289063 4316.019531 1569 4311.089844 C 1544.78125 4309.3125 1520.578125 4305.796875 1497 4300 C 1483.585938 4296.503906 1469.804688 4292.351563 1460 4282 C 1434.828125 4255.070313 1425.917969 4212.167969 1419.574219 4177 C 1405 4096.199219 1403.488281 4010.761719 1409 3929 C 1410.710938 3905.347656 1411.882813 3881.617188 1414.171875 3858 C 1415.679688 3842.378906 1419.808594 3825.289063 1414.644531 3810 C 1409.980469 3796.195313 1397.710938 3784.066406 1389.667969 3772 C 1374.3125 3749 1360.277344 3725.207031 1346.859375 3701 C 1309.285156 3633.210938 1279.644531 3561 1253.691406 3488 C 1200 3337.257813 1167.839844 3178 1150.835938 3019 C 1135.824219 2878.777344 1130.257813 2737.792969 1139.910156 2597 C 1152.957031 2406.734375 1196.46875 2215.546875 1305 2056 L 1306 2056 C 1309.542969 2082.300781 1320.253906 2109.289063 1329.574219 2134 C 1392.554688 2301 1552 2406 1714 2463.691406 C 1964.277344 2553.074219 2244.566406 2563.085938 2505 2519.414063 C 2654.433594 2494.355469 2802.414063 2450 2934 2373.574219 C 3018.886719 2324.308594 3096.5625 2258 3148.574219 2174 C 3165 2147.335938 3179 2119 3190.988281 2090 C 3196 2077.507813 3199.167969 2057.019531 3208 2047 M 1106 3309 C 1118 3352.179688 1127.765625 3396 1140.71875 3439 C 1163.832031 3515.734375 1191.867188 3591.15625 1225.308594 3664 C 1244 3705 1264.988281 3745.316406 1288.199219 3784 C 1295.71875 3796.527344 1303.5625 3809 1311.667969 3821 C 1315.214844 3826.320313 1321.308594 3832.679688 1322.695313 3839 C 1325 3849.511719 1320.515625 3863.261719 1320 3874 C 1318.683594 3904.671875 1315.765625 3935.300781 1315 3966 C 1312.652344 4062.402344 1316.546875 4159.777344 1343 4253 C 1268.378906 4253 1193.734375 4255 1119 4255 C 1084.257813 4255 1040 4258.828125 1010 4239 C 1027.914063 4208 1069.320313 4186 1100 4169.308594 C 1125.238281 4155.65625 1149.804688 4145 1148.984375 4112 C 1148.285156 4084 1117.691406 4072.824219 1101 4055 C 1072.355469 4024.152344 1052.460938 3986.617188 1034.257813 3949 C 1011.710938 3902.398438 996.328125 3852 982.847656 3802 C 965.808594 3739.007813 951.601563 3674.527344 956 3609 C 961.242188 3533.734375 988.660156 3461.507813 1030.332031 3399 C 1046 3375.316406 1063.5625 3353 1082.910156 3332 C 1090.210938 3324.121094 1097 3315.222656 1106 3309 M 3407 3325 C 3418.53125 3330.378906 3428.445313 3346.226563 3436.390625 3356 C 3459.765625 3384.765625 3480.65625 3415.820313 3497.246094 3449 C 3528.738281 3512 3546 3582.367188 3542.960938 3653 C 3540.9375 3699.191406 3530 3744.289063 3518.875 3789 C 3503 3852.074219 3481.847656 3913.808594 3452.753906 3972 C 3438 4001.34375 3420.179688 4031.539063 3396.996094 4055 C 3381.238281 4071 3355.914063 4081.601563 3350.238281 4105 C 3342.371094 4137.425781 3367.90625 4152.503906 3392 4166 C 3411.921875 4177 3431.746094 4188.1875 3450 4202 C 3460.710938 4210 3470.703125 4218.300781 3479.960938 4228 C 3482.488281 4230.648438 3489 4236.304688 3485.574219 4240.214844 C 3472 4255.554688 3436.472656 4254 3418 4254 C 3361 4254.003906 3303.992188 4255.023438 3247 4255 C 3229.445313 4255 3210.492188 4255.496094 3193 4253.828125 C 3189.691406 4253.515625 3178.214844 4254.46875 3176 4252 C 3174.707031 4250.285156 3176.363281 4246.777344 3176.859375 4245 C 3178.722656 4238.355469 3180.453125 4231.695313 3182 4225 C 3188.492188 4199.5 3193 4173.132813 3195.835938 4147 C 3204.511719 4066.257813 3205.511719 3985.101563 3201.960938 3904 C 3200.835938 3878.3125 3198.210938 3852.6875 3196.960938 3827 C 3196.546875 3818.457031 3192.476563 3806.113281 3195.9375 3798 C 3201 3786 3212.941406 3775 3220.328125 3764 C 3237.265625 3739 3253.382813 3713.4375 3268 3687 C 3312.503906 3607.519531 3347.664063 3522.636719 3375.34375 3436 C 3386.753906 3400.292969 3401.984375 3362.257813 3407 3325 "/>
</g>
</svg>
