<?xml version="1.0" encoding="UTF-8"?>
<svg xmlns="http://www.w3.org/2000/svg" xmlns:xlink="http://www.w3.org/1999/xlink" width="4500pt" height="4500pt" viewBox="0 0 4500 4500" version="1.1">
<g id="surface1">
<path style=" stroke:none;fill-rule:nonzero;fill:rgb(0%,0%,0%);fill-opacity:1;" d="M 1543 3022 L 1543 3021 C 1584.515625 3011.394531 1629.457031 2996.027344 1662 2967.710938 C 1722.386719 2915.171875 1729.367188 2831.460938 1685.996094 2766 C 1669.574219 2741.214844 1646.871094 2721.621094 1625 2701.828125 C 1596.695313 2676.21875 1568.9375 2650 1541 2624 C 1444.335938 2534 1347.945313 2443.449219 1250 2354.828125 C 1185.300781 2296.289063 1120 2211 1023 2220.171875 C 953.949219 2226.769531 906.527344 2282.5 888.425781 2346 C 872.488281 2402 862 2460.21875 849.574219 2517 C 821.796875 2642.773438 794.867188 2769.039063 763.628906 2894 C 755.402344 2927 748.34375 2960.097656 740 2993 C 733.898438 3018 730 3040.285156 730 3066 C 730 3074.4375 728.898438 3083.753906 730.898438 3092 C 734.40625 3106.449219 745.738281 3119.652344 753.691406 3132 C 766.878906 3152.476563 780.460938 3172.589844 799 3188.710938 C 838.742188 3223.277344 892 3222.570313 940 3208.574219 C 967 3200.652344 994 3192.242188 1021 3183.65625 C 1026.25 3182 1043.417969 3173 1048 3176 C 1053 3179.066406 1056.894531 3187.363281 1060.371094 3192 C 1069.941406 3204.757813 1079.613281 3217.425781 1089.425781 3230 C 1118.464844 3267.210938 1149.945313 3302.492188 1182 3337 C 1269.484375 3430.820313 1372.441406 3512.613281 1481 3580.574219 C 1586.355469 3646.53125 1698.730469 3702.351563 1818 3738.28125 C 1862.464844 3751.675781 1907.453125 3763.289063 1953 3772.398438 C 1967.640625 3775.328125 1982.269531 3778.292969 1997 3780.753906 C 2003 3781.761719 2012.539063 3781.796875 2017.789063 3785.011719 C 2025 3789.503906 2030.425781 3803.78125 2034.949219 3811 C 2048.351563 3832.371094 2061.554688 3854 2075.34375 3875 C 2122.925781 3948 2171.21875 4021.539063 2228.84375 4087 C 2254 4115.59375 2284.472656 4150.660156 2323 4160.523438 C 2371.484375 4173 2416.511719 4141.488281 2449 4109 C 2518.863281 4039.136719 2564.742188 3949.496094 2612 3864 C 2624.582031 3841.554688 2635.28125 3818 2646.753906 3795 C 2650 3788.453125 2653.417969 3774.03125 2660.214844 3770.515625 C 2666 3767.484375 2674.582031 3767.589844 2681 3766.390625 C 2696.347656 3763.519531 2711.6875 3760.664063 2727 3757.601563 C 2771.535156 3748.691406 2815.519531 3737.378906 2859 3724.28125 C 2970.863281 3690.582031 3074.175781 3635.316406 3172 3572.308594 C 3280.785156 3502.238281 3381.726563 3418.664063 3469.910156 3324 C 3499 3292.601563 3527.167969 3260 3553.574219 3226 C 3562.328125 3214.78125 3570.835938 3203.382813 3579.375 3192 C 3582.914063 3187.277344 3586.449219 3180 3591.300781 3176.527344 C 3595.605469 3173.480469 3604.574219 3178.496094 3609 3180.003906 C 3625.914063 3185.765625 3642.9375 3191.015625 3660 3196.339844 C 3711 3212.300781 3763 3225.113281 3815 3204.550781 C 3874.398438 3181 3907.992188 3122.621094 3907.992188 3060 C 3907.992188 3011.175781 3890.890625 2961.382813 3880.425781 2914 C 3862 2830.601563 3843.582031 2747.105469 3823.882813 2664 C 3802.683594 2574.539063 3784 2484.460938 3762.882813 2395 C 3749.351563 2338 3736.253906 2281.761719 3685 2245.722656 C 3638.53125 2213.046875 3577.9375 2213 3528 2237.808594 C 3503.433594 2250.09375 3482.925781 2268.535156 3463 2287.089844 C 3353.632813 2389 3244.816406 2491.566406 3134 2591.828125 C 3097.960938 2624.4375 3062.5625 2657.785156 3027 2691 C 3002.75 2713.496094 2975.828125 2735 2956.425781 2762 C 2911.953125 2824.230469 2915.410156 2913 2974 2965.828125 C 3007 2995.671875 3054.1875 3011.183594 3097 3021 C 2985.386719 3132.613281 2848.445313 3224 2699 3276.34375 C 2665.585938 3288.054688 2632 3298.273438 2598 3308 C 2589.429688 3310.449219 2580.703125 3312.644531 2572 3314.574219 C 2569.585938 3315.109375 2564.9375 3317 2562.605469 3315.671875 C 2559.398438 3314 2561 3304.132813 2561 3301 L 2561 2294 C 2561 2289 2559.296875 2280.003906 2561.605469 2275.316406 C 2563.253906 2272 2568.964844 2273 2572 2273 L 2603 2273 C 2646 2273 2688.992188 2275.039063 2732 2274 C 2782.570313 2272.746094 2835.996094 2277 2886 2268.566406 C 2938.214844 2259.804688 2987.609375 2234.019531 3022.714844 2194 C 3037.332031 2177.335938 3049.472656 2159 3059.242188 2139 C 3070.597656 2116 3077.542969 2090.484375 3080.714844 2065 C 3094.5 1954.226563 3027.179688 1843.589844 2920 1809.34375 C 2866.976563 1792.402344 2807.992188 1797 2753 1797 L 2570 1797 C 2565.996094 1797 2560 1798.128906 2559 1793 C 2556.210938 1775.695313 2558 1754.539063 2558 1737 C 2557.976563 1732 2555.847656 1721.65625 2558 1717.214844 C 2559.949219 1713.628906 2565.625 1712.351563 2569 1710.746094 C 2578.699219 1706.132813 2588.539063 1701.808594 2598 1696.691406 C 2631.8125 1678.40625 2664 1657.65625 2694 1633.390625 C 2764.863281 1575.800781 2821.601563 1502 2859.691406 1419 C 2888.746094 1355.726563 2905.246094 1288.132813 2911.828125 1219 C 2934.777344 978.050781 2789.890625 736.816406 2571 636.308594 C 2461.425781 586 2342 569.738281 2223 587.269531 C 2160.746094 596.441406 2098 617.628906 2043 648.140625 C 1975.847656 685.386719 1915.703125 732.804688 1866.433594 792 C 1708.867188 981.316406 1681.644531 1250 1803.425781 1465 C 1843.472656 1535.730469 1898 1598.753906 1964 1646.574219 C 1989.632813 1665.167969 2016 1682.609375 2044 1697.691406 C 2052.273438 1702.164063 2060.585938 1706.546875 2069 1710.753906 C 2072.773438 1712.640625 2078.46875 1714.355469 2080.683594 1718.214844 C 2083.753906 1723.5625 2082 1733.03125 2082 1739 C 2082 1756 2082.316406 1773.011719 2081.996094 1790 C 2081.839844 1798.339844 2075.65625 1797 2069 1797 L 1882 1797 C 1830 1797 1773.203125 1792.484375 1723 1808.023438 C 1619 1840.214844 1550.703125 1944.140625 1558 2052 C 1559.894531 2078.355469 1566.257813 2104.738281 1576.71875 2129 C 1585.691406 2149.808594 1597.242188 2169.441406 1611.613281 2187 C 1642.996094 2225.34375 1686.605469 2254 1735 2265.347656 C 1765.703125 2272.601563 1797.660156 2272 1829 2272 C 1859.921875 2272.148438 1890.996094 2273 1922 2273 L 2069 2273 C 2071.804688 2273 2076.976563 2272.082031 2078.972656 2274.605469 C 2081.421875 2277.699219 2080 2285.269531 2080 2289 L 2080 3303 C 2080 3306 2081.523438 3315 2077.683594 3316 C 2068.742188 3318.238281 2050.855469 3310.242188 2042 3308 C 2010.953125 3299.449219 1980.375 3290 1950 3279.34375 C 1848.71875 3244.175781 1752.75 3192.410156 1667 3128.128906 C 1637.566406 3106.0625 1609.273438 3082.503906 1582 3057.828125 C 1570 3047.082031 1557.429688 3028.730469 1543 3022 M 2309 672.285156 C 2323.890625 670.527344 2340 673 2355 674 C 2400.441406 677.09375 2445 687 2488 702.308594 C 2538.523438 720.351563 2585.546875 747 2628 779.652344 C 2753.257813 876.203125 2827.886719 1033.773438 2820.960938 1192 C 2817.6875 1266.796875 2797 1340.796875 2762.21875 1407 C 2725.363281 1477 2671.398438 1539.152344 2606 1583.65625 C 2586.515625 1597 2566.234375 1609.460938 2545 1619.742188 C 2518.25 1632.691406 2491 1642.769531 2475.429688 1670 C 2462.746094 1692.046875 2465.710938 1715 2465.996094 1739 C 2466.425781 1775 2465 1811.027344 2466 1847 C 2466.496094 1866.425781 2482.578125 1883.625 2501 1888.101563 C 2513.300781 1891.089844 2525.5625 1889 2538 1889.003906 C 2563.316406 1889.304688 2588.691406 1889 2614 1889 C 2669.996094 1889 2726 1889.730469 2782 1890 C 2817 1890.167969 2854.9375 1886.570313 2889 1896.722656 C 2958.742188 1917.503906 3000.304688 1991.550781 2987.574219 2062 C 2984.976563 2076.382813 2980.230469 2091.183594 2973 2104 C 2967 2115.085938 2959.742188 2125.8125 2950.960938 2135 C 2907.96875 2180 2852.597656 2179.320313 2795 2180.003906 C 2759.398438 2180.425781 2723.679688 2181 2688 2181 L 2531 2181 C 2513 2181 2495.949219 2180.5 2482.171875 2194.175781 C 2463.257813 2213 2468 2241.789063 2468 2266 L 2468 3330 C 2468 3355 2462.183594 3387.652344 2482 3406.824219 C 2500.828125 3425 2523.183594 3419.5625 2546 3415 C 2591.757813 3406 2636.265625 3393.523438 2681 3380.425781 C 2835.976563 3335.039063 2982.265625 3248.433594 3103 3142.15625 C 3142.542969 3107.347656 3184.660156 3070.53125 3217.332031 3029 C 3238.511719 3002.074219 3225.964844 2965.425781 3194 2954.667969 C 3164.890625 2945 3135.332031 2936.140625 3106 2927.027344 C 3088.3125 2921.53125 3069.492188 2917.15625 3053 2908.515625 C 3031.230469 2897.105469 3015.636719 2874.332031 3018.171875 2849 C 3020.839844 2822.304688 3042.332031 2802.722656 3061 2785.828125 C 3084.234375 2764.808594 3107 2743.265625 3130 2722 C 3240.960938 2618.558594 3351.5625 2514.566406 3464 2412.828125 C 3494.410156 2385.3125 3522.757813 2353.292969 3556 2329.15625 C 3573.492188 2316.457031 3596.574219 2307.730469 3618 2314.75 C 3637.644531 2321.1875 3650.714844 2339.476563 3657.9375 2358 C 3673.199219 2397.140625 3678.476563 2442.097656 3687.882813 2483 C 3721.730469 2630.195313 3753 2778.03125 3787.882813 2925 C 3795.683594 2958 3803 2991 3810.210938 3024 C 3815.550781 3048.75 3819.390625 3076.421875 3804.910156 3099 C 3786 3128.246094 3749.9375 3125 3721 3117.152344 C 3694.734375 3110.046875 3668.8125 3102.269531 3643 3093.667969 C 3610 3082.679688 3578.324219 3070.359375 3546 3091.089844 C 3521.253906 3107 3505.617188 3136.0625 3488 3159 C 3460.84375 3194.742188 3431.546875 3229.113281 3400.910156 3262 C 3309.6875 3360 3203.707031 3444.125 3090 3514.574219 C 2994.714844 3573.613281 2893.625 3620.554688 2785 3649.117188 C 2744.734375 3659.703125 2703.964844 3668.191406 2663 3675.574219 C 2643 3679.160156 2616.894531 3678.6875 2600 3690.789063 C 2588.296875 3699.171875 2583.734375 3711.578125 2577.742188 3724 C 2567.4375 3745.351563 2557.363281 3766.78125 2546.753906 3788 C 2512.226563 3857.054688 2474.585938 3925.054688 2429.710938 3988 C 2413.40625 4011 2395.40625 4034.234375 2374 4052.570313 C 2367.246094 4058.359375 2357.261719 4068.246094 2348 4069.363281 C 2339.925781 4070.335938 2329.363281 4058 2324 4053 C 2303.34375 4033.667969 2285.746094 4011.023438 2268.199219 3989 C 2216.261719 3923.8125 2171.695313 3853.003906 2126.691406 3783 C 2115.894531 3766.207031 2105.5625 3749.066406 2095.203125 3732 C 2087.402344 3719.148438 2080.496094 3706.207031 2066 3700 C 2045.714844 3691.019531 2019.664063 3691.105469 1998 3686.800781 C 1950.582031 3677.375 1903.34375 3667.183594 1857 3653.28125 C 1722.300781 3613 1595.679688 3548.707031 1480 3469 C 1387 3405 1299 3330.746094 1224.285156 3246 C 1197.921875 3216.105469 1171.8125 3186 1147.871094 3154 C 1131.785156 3132.5625 1116.984375 3105.832031 1094 3091.089844 C 1062.199219 3070.695313 1031.457031 3082.523438 999 3093.332031 C 975.546875 3101.144531 951.753906 3108.300781 928 3115.140625 C 901.714844 3122.710938 873.589844 3135 852.175781 3111 C 844 3102 837.859375 3091.191406 831.308594 3081 C 828.203125 3076.167969 823.433594 3070.730469 822.277344 3065 C 819 3049.546875 825.917969 3031.832031 829.628906 3017 C 836.769531 2988.421875 843.320313 2959.664063 850 2931 C 884.738281 2785 916.484375 2638.273438 950 2492 C 958 2457.6875 965.941406 2423.367188 973.574219 2389 C 979.507813 2362.292969 987.503906 2333.230469 1013 2318.464844 C 1060.890625 2290.730469 1107 2350.378906 1138 2377.714844 C 1149.523438 2388 1160.976563 2398.285156 1172 2409 C 1281 2515 1395.785156 2615.320313 1507 2719 C 1534.242188 2744.285156 1562.664063 2768.675781 1589 2795 C 1604 2810.089844 1620.335938 2828.511719 1621.910156 2851 C 1623.644531 2875.753906 1608.3125 2894.527344 1588 2906.796875 C 1572.683594 2916.046875 1554.996094 2920.601563 1538 2925.71875 C 1513.632813 2933.0625 1489.203125 2940.472656 1465 2948.328125 C 1446.359375 2954.382813 1427.855469 2958.335938 1417.515625 2977 C 1402.800781 3003.554688 1420 3026.136719 1437.960938 3045 C 1460.59375 3068.789063 1483.253906 3092.253906 1507 3115 C 1640.367188 3242.488281 1807.765625 3337.335938 1985 3388.140625 C 2023 3399.082031 2061.851563 3409.4375 2101 3416.25 C 2125.167969 3420.457031 2146.59375 3423 2163.472656 3401 C 2178 3382.097656 2172 3350.449219 2172 3328 L 2172 2272 C 2172 2247 2178.371094 2214.402344 2158.984375 2195.015625 C 2144 2180.082031 2126.59375 2181 2107 2181 L 2036 2181 C 1979.992188 2181 1923.925781 2180.667969 1868 2180.003906 C 1805 2179.253906 1738.757813 2187 1691 2137 C 1681.90625 2127.453125 1674.285156 2116.515625 1667.863281 2105 C 1660.507813 2091.816406 1655.40625 2076.816406 1652.609375 2062 C 1639.53125 1992.652344 1681 1917.253906 1750 1896.722656 C 1783.84375 1886.636719 1822 1890 1857 1890 C 1913.929688 1890 1971 1889.726563 2028 1890 C 2052.359375 1890.117188 2076.71875 1889.292969 2101 1889.003906 C 2114.367188 1889 2127.894531 1891.464844 2141 1887.558594 C 2158.535156 1882.335938 2173 1865.613281 2173.960938 1847 C 2175.6875 1809.011719 2174 1771 2174 1733 C 2174 1713 2176.695313 1689.121094 2166.558594 1671 C 2154.253906 1649.003906 2132.441406 1639 2111 1628.191406 C 2088.660156 1617.019531 2066.789063 1604.527344 2046 1590.667969 C 1979.570313 1546.382813 1922.773438 1489.121094 1883.859375 1419 C 1843 1345.386719 1820 1262.09375 1818 1178 C 1813.800781 1006 1913.566406 838 2057 747.054688 C 2108.902344 714.179688 2167.542969 691.328125 2228 680.425781 C 2255 675.550781 2281.957031 675.476563 2309 672.285156 M 2309 901.425781 C 2279.375 905.316406 2252.183594 909.65625 2225 923.25 C 2206.75 932.371094 2189.433594 944.589844 2175 959 C 2159 975 2145.949219 992.199219 2135.308594 1012 C 2090.875 1094.695313 2118.363281 1199 2153 1280 C 2185 1354.296875 2242.945313 1451.253906 2337 1440 C 2405.910156 1431.488281 2451.6875 1364 2478.308594 1306 C 2524.214844 1206.011719 2557.722656 1074 2483.339844 979 C 2472.929688 965.714844 2460.492188 953.511719 2447 943.375 C 2429.304688 930.082031 2410 919.671875 2389 912.667969 C 2364.460938 904.484375 2334.980469 898.011719 2309 901.425781 M 2307 994.285156 C 2322.746094 992.402344 2339.90625 994.355469 2355 999.023438 C 2366.347656 1002.539063 2377.191406 1007.613281 2387 1014.347656 C 2455 1061.089844 2436 1150.78125 2414 1217 C 2409.363281 1231 2404.335938 1244.628906 2398.304688 1258 C 2387 1282.710938 2374.285156 1306.644531 2356 1327 C 2348.316406 1335.796875 2337.289063 1346.328125 2325 1347.816406 C 2311.695313 1349.425781 2300.789063 1339.789063 2292 1331 C 2271.828125 1310.828125 2258.355469 1285.273438 2245.753906 1260 C 2207.800781 1184 2170.605469 1056.625 2266 1006.636719 C 2278.847656 1000 2292.628906 996.003906 2307 994.285156 "/>
</g>
</svg>
